<svg xmlns="http://www.w3.org/2000/svg" viewBox="0 0 565.74 310.3"><defs><style>.cls-1{fill:#76bc21;}</style></defs><title>Asset 1</title><g id="Layer_2" data-name="Layer 2"><g id="Capa_1" data-name="Capa 1"><path class="cls-1" d="M516.2,65.82c3.19-.68,5.57.3,7.9,2.29s3.45,5.13,1.63,8a6.25,6.25,0,0,0-.73,1.65,2.59,2.59,0,0,1-3,1.64c-.92-.09.05,3,3.38,1.14a5,5,0,0,1,2.42-.27,2,2,0,0,1,1.37.45c1.52,1.65,2.6,4.62,1,6.14a9.28,9.28,0,0,0-1,1.81c-.69,1.18-1.64,1.67-2.62.74A13.53,13.53,0,0,1,524.93,88l-.58.51c.52.62.93,1.47,1.58,1.81,1.21,1.34.9,1.66,4.49,1.75s5.57-.64,6.15-2.1c.88-2.21.31-4-1.36-5.74a7.16,7.16,0,0,1-1.46-3.58c-.08-.44,1-1.11,1.53-1.63,1.15-1,1.12-1.86-.11-2.87a5.46,5.46,0,0,1-.78-.88c-.76-1-1.47-2.12-2.24-3.15-.48-.65-1.27-1.18-1.47-1.88a4,4,0,0,1,.35-2.35,9.16,9.16,0,0,1,1.34-1.82c.33-.43.56-1,1-1.28,2.21-1.45,4.57-2.67,6.7-4.24,2.68-2,5.54-3.92,7.69-6.42,6.76-7.91,9.1-17.3,8.39-27.57a8.72,8.72,0,0,1,.45-2.48,13.73,13.73,0,0,0,.55-2.28,21.41,21.41,0,0,0-.24-3.19C556,10.49,552.08,4.48,544.46,1c-4.8-2.18-11.72-.76-15.07,3.29a6.47,6.47,0,0,1-4.75,2.62,36.91,36.91,0,0,0-4.53.66c-1.2.25-3.4,1.54-3.7,2.73,3.29-.35,7.39-.28,9.92,1.19,1,.61,3.39,8,1.17,10.83-2,2.53-4,5-5.85,7.61-1,1.4-1.53,3.11-2.51,4.51-2,2.9-4.34,5.62-6.33,8.55a35.5,35.5,0,0,0-5.63,12.77c-.53,2.52.11,3.54.16,4.47C507.34,60.25,509.83,67.18,516.2,65.82ZM539,10.9a1.93,1.93,0,0,1-2.08-1.72,2.11,2.11,0,0,1,4.15,0A1.92,1.92,0,0,1,539,10.9Z"/><path class="cls-1" d="M507.25,57.9h0A2.18,2.18,0,0,1,506,59.16c-2.21,1.18-8.75,1.67-13.06,2.2s-12.82-1.1-15.32-3.51c-3.79-3.63-8.59-5.64-13.32-7.73-2.15-.95-4.33-1.84-6.5-2.79-.82-.36-1.62-.8-2.42-1.21-.07.14-.15.27-.22.4L457,47.69a30.85,30.85,0,0,0-3.5-1.31c-7.07-1.6-14.17-3.09-21.24-4.71a52.19,52.19,0,0,1-7.3-2.12c-2.73-1.06-5.3-2.51-8-3.69-3.44-1.53-6.88-3.07-10.4-4.37-3.7-1.38-7.52-2.43-11.26-3.71-4.32-1.47-8.63-3-12.92-4.59-2.41-.86-4.79-1.81-7.19-2.72l-.11.27,1.61.82a10.21,10.21,0,0,0-9,1.1c.36.31.62.51.88.73l-9.9,2.36c.34.05.69.14,1.06.17a76.71,76.71,0,0,1,24.06,5.52C390,34,396.11,37,402.23,39.79c2.8,1.3,5.53,2.77,8.29,4.16,4.07,2.06,8.12,4.17,12.22,6.17,3.4,1.65,6.87,3.17,10.66,4.91l-11.07-.52a2,2,0,0,1-.05.24l2.26.86A299,299,0,0,0,378,53.48L393.22,58a20.67,20.67,0,0,1-3.46-.59C384,56.3,378.3,54.1,372.19,55.45a47.26,47.26,0,0,1-7,.49c-.06,0-.11.12-.18.19l.43.38-2.62.37,0,.27,1,.37-1,.29,1,.9-4-.08c0,.11,0,.22,0,.34l4.94.87c0,.1,0,.19,0,.28l-5-.1c0,.11,0,.21,0,.32l6.05.57c-2.89.45-5.38.81-7.85,1.24a1.9,1.9,0,0,0-1,.59c-.12.14-.25.28-.37.43a.41.41,0,0,1-.09.1l-.88,1.18-.06.08.18,0,.35-.05c.23,0,.44-.07.66-.12a76.85,76.85,0,0,1,27.67-.63c11.5,1.75,22.94,3.87,34.4,5.87,9.85,1.71,19.69,3.44,29.7,4.08,12.52.81,24.91.6,37.06-3.17,4.77-1.48,9.76-2.25,14.54-3.74,2.89-.91,5.53-2.62,8.34-3.82a3.61,3.61,0,0,1,2.55,0h0m-5.32-.77c-2.9,1.13-5.78,2.35-8.71,3.35-2.38.81-4.84,1.38-7.27,2a7.13,7.13,0,0,1-6.2-1.15c7.21-2.5,14.75-2.85,21.9-5C507.08,60.83,506.36,61.75,505.77,62.16Z"/><path class="cls-1" d="M482.18,246v.07l.13.1Z"/><path class="cls-1" d="M431.53,282.08a1.57,1.57,0,0,0,0-.28h-.42Z"/><path class="cls-1" d="M431,249.92l.59.17-.77-1C430.84,249.35,430.89,249.64,431,249.92Z"/><path class="cls-1" d="M516.61,247.8l-1-6H511C512.94,243.79,514.71,245.87,516.61,247.8Z"/><path class="cls-1" d="M503.74,310.3s0-.08,0-.12l-.06-.08C503.7,310.17,503.72,310.24,503.74,310.3Z"/><path class="cls-1" d="M478.31,268.35l-.16.88,1.33.34C479.1,269.16,478.71,268.75,478.31,268.35Z"/><path class="cls-1" d="M33.17,249c.18.35.32.7.49,1.05-.16-.83-.31-1.65-.49-2.48,0-.19-.23-.35-.29-.54-.32-.9-.65-1.79-.9-2.7-.59-2.18-1.14-4.37-1.72-6.56,0-.08-.1-.15-.12-.22-.29-1-.55-2-.87-3s-.69-2-1.05-3c-.1-.28-.34-.52-.38-.8a13.69,13.69,0,0,0-3.2-7.06,74.86,74.86,0,0,0-6.82-6.86c-.52-.51-1-1-1.55-1.55-1-.34-2.1-.68-3.13-1-1.88-.66-3.76-1.28-5.88-2a3,3,0,0,1,3-.73l3.1.93L6.88,207c-.19-.16-.42-.27-.61-.43-1.27-1-2.51-2.08-3.78-3.11-.3-.23-.62-.42-.94-.62-.51-.35-1-.68-1.55-1v11.41A83.85,83.85,0,0,1,33.17,249Z"/><path class="cls-1" d="M5,249.78a11.12,11.12,0,0,0,1,1.33A12.4,12.4,0,0,1,7,252.66c.42.85.82,1.72,1.22,2.59a1.52,1.52,0,0,1,.2.06c1.68.52,3.29,1.23,4.92,1.89,3,1.21,6.14,2.24,9,3.72,3.57,1.81,7.09,3.77,10.58,5.77-.52-1.83-1.06-3.64-1.67-5.44q-1.51-4.56-3.4-8.92A30,30,0,0,0,20.12,246l.42-.83a18.68,18.68,0,0,1,3.61,1.79c.73.59,1.45,1.19,2.15,1.8a102,102,0,0,0-18-26.31,45.37,45.37,0,0,0-8.35-7v25.33l.44.71C2,244.18,3.46,247,5,249.78Z"/><path class="cls-1" d="M8.5,155.39c1.88,2.39,3.82,4.74,5.54,7.23,2,2.87,3.66,6,5.75,8.78a61.12,61.12,0,0,1,5.74,9.24c2.3,4.51,4.9,8.87,7.38,13.28.4.73,1,1.38,1.32,2.13.78,1.63,1.44,3.32,2.22,5,1,2,2,4,3,6,.51,1,1.06,2,1.47,3.09.18.47.35,1,.51,1.42a3.14,3.14,0,0,1,.75,0c1.45.15,2.9.32,4.35.49V187.31c-.67-.8-1.34-1.6-2-2.38-1-1.11-2.06-2.12-3.07-3.2-1.37-1.47-2.64-3-4.08-4.43-2.22-2.16-4.57-4.19-6.82-6.32-.28-.27-.26-.86-.38-1.29.39,0,.89-.23,1.15-.06,1.34.91,2.66,1.87,3.93,2.9,1.09.89,2.08,1.88,3.13,2.82,1.63,1.46,3.31,2.86,4.87,4.39,1.16,1.14,2.22,2.38,3.31,3.59V79.39H0v65.8c.94.94,1.85,1.9,2.71,2.89C4.74,150.43,6.6,152.94,8.5,155.39Z"/><path class="cls-1" d="M13,280.62c-.57-1.22-1.35-2.33-1.88-3.56-.94-2.21-1.76-4.47-2.65-6.7a2.9,2.9,0,0,0-.57-1c-2-2-3.24-4.56-5.29-6.59A34.35,34.35,0,0,0,0,260.51V281.8H13.45C13.3,281.4,13.14,281,13,280.62Z"/><path class="cls-1" d="M8.65,202.69c1.59,1.16,3.18,2.32,4.7,3.57,1.79,1.46,3.48,3,5.28,4.49.31.25.94.11,1.41.15a3.16,3.16,0,0,0,0-1.19c-1-2.1-1.9-4.19-3-6.22s-2.6-3.91-2.94-6.32a.9.9,0,0,0-.29-.56c-2.1-1.58-2.63-4.18-4-6.25-1-1.54-1.66-3.3-2.93-4.73-.4-.44-.35-1.27-.59-2.23.54.26.79.3.89.43,1.16,1.76,2.28,3.54,3.46,5.3.39.59,1.16,1.05,1.3,1.67.6,2.58,3.25,4.06,3.54,6.78,0,.21.35.37.46.59.82,1.44,1.64,2.89,2.44,4.35.21.4.31.87.53,1.27.77,1.53,1.58,3,2.38,4.55.46.84,1.26,1.65,1.33,2.51a7.35,7.35,0,0,0,2.12,4.45c.4.44.78.89,1.15,1.36,1.58.6,3.17,1.17,4.72,1.84s2.9,1.41,4.36,2.12,3,1.38,4.44,2.11c-.35-.86-.69-1.74-1-2.61-1.21-3-1.86-6.18-3.58-9a34.25,34.25,0,0,1-2.25-5.76c-.16-.4-.38-.76-.57-1.14-.4-.87-.82-1.74-1.19-2.62-.21-.51-.29-1.07-.54-1.55q-2.25-4.38-4.54-8.74c-.51-1-1.09-1.92-1.59-2.89-1.31-2.55-2.53-5.13-3.89-7.64-1.17-2.13-2.48-4.18-3.74-6.27-1.81-3-3.6-6-5.46-8.95-.56-.88-1.41-1.56-2-2.42-2.36-3.34-4.63-6.74-7-10.06-.63-.87-1.34-1.69-2.06-2.5v46.15q1.31.83,2.58,1.68C4.63,199.79,6.65,201.24,8.65,202.69Z"/><path class="cls-1" d="M45.5,213.72c-1.14-.18-2.27-.34-3.45-.51.53,1.51,1.05,3,1.63,4.52.91,2.34,1.94,4.63,2.87,7V213.88Z"/><path class="cls-1" d="M27.2,243.74c1.35,3.24,2.69,6.5,4,9.75.86.93,1.69,1.88,2.49,2.84A119.22,119.22,0,0,0,27.2,243.74Z"/><path class="cls-1" d="M45.45,250.17c-2.27-.79-4.57-1.54-7.16-2.42a3.65,3.65,0,0,1,3.68-.89L45.6,248l-.13-.2c-1.48-2.14-3.24-3.94-4.84-5.91A54.65,54.65,0,0,0,36.9,237c-2.17-2.18-4-4.73-6-7.23a1.67,1.67,0,0,0-.13,2.27c.39.68.7,1.4,1.05,2.11.18.38.4.74.55,1.13a18.06,18.06,0,0,1,.82,2.27c.26,1,.38,2,.65,3,.19.75.57,1.45.77,2.2.61,2.29,1.18,4.58,1.77,6.88,0,.08.1.15.12.22.28,1.12.57,2.24.8,3.37.18.86,0,2,.44,2.58a6.69,6.69,0,0,1,1.06,3.69,1.87,1.87,0,0,0,.33,1.08c1,1.11.85,2.4.84,3.73,0,.34,0,.69,0,1.05a63.88,63.88,0,0,1,3.83,8.15c.93.66,1.85,1.34,2.77,2v-25Z"/><path class="cls-1" d="M34.58,272.6s0,0,0,0c-5.14-3.13-10.3-6.23-15.59-9.09-2.76-1.48-5.61-2.84-8.51-4.05.66,1,1.43,2,2.17,2.92a30.82,30.82,0,0,0,3.87,4.79c2.51,2.17,4.25,5,6.87,7.11,2,1.61,3.44,3.92,5.12,5.92.33.39.57.91,1,1.15a6.41,6.41,0,0,1,.68.48h6.59C36,278.72,35.34,275.66,34.58,272.6Z"/><path class="cls-1" d="M40.13,228.52c.46-.12,1-.47,1.37-.32l.1.05a0,0,0,0,0,0,0,4.75,4.75,0,0,0-.2-.64c-.38-.26-.76-.53-1.16-.78-.67-.46-1.45-.76-2.16-1.16-2.13-1.16-4.23-2.34-6.35-3.51-.27-.15-.52-.34-.8-.48l-.85-.45c.8.76,1.62,1.5,2.39,2.29,1.11,1.14,2.12,2.37,3.19,3.56,1.39,1.52,2.73,3.08,4.21,4.52a28.31,28.31,0,0,0,3,2.34,2.14,2.14,0,0,0-.06-1.2c-.15-.61-.32-1.22-.48-1.83l-1.41-.9C40.49,229.72,40.38,229,40.13,228.52Z"/><path class="cls-1" d="M167.14,256.69c-2.58-.79-5.2-1.49-7.81-2.18l-1.07-.27c.14.26.28.52.41.78,1.27,2.52,2.3,5.15,3.45,7.73.91,2,1.84,4.07,2.76,6.11.86.24,1.72.49,2.57.78l1.68.61a51.08,51.08,0,0,0,9.56-8c.44-.46.86-.92,1.29-1.39v-.09C175.78,259.23,171.44,258,167.14,256.69Z"/><path class="cls-1" d="M68.47,240.7a6,6,0,0,0,1.74,3.65c1,1.17,2,2.43,3,3.57s2.21,2.07,3.27,3.16c.91.93,1.74,1.95,2.62,2.92.63.7,1.25,1.4,1.89,2.09,1.08,1,2.13,1.93,3.16,2.93l.84.63a1.77,1.77,0,0,0,0-1c-.32-1.23-.64-2.47-1-3.69-.06-.21-.12-.4-.19-.6-.81-2-1.61-4-2.42-6.05-1-2.46-1.52-5.08-2.94-7.4a11.11,11.11,0,0,1-.82-1.74c-1.92-1.37-3.89-2.68-5.91-3.9-1.46-.89-3-1.72-4.47-2.52v5.67l.11.21C67.75,239.33,68.41,240,68.47,240.7Z"/><path class="cls-1" d="M145.55,274a1,1,0,0,0-.59-.24c0,.64-.05,1.28-.08,1.93a25.47,25.47,0,0,0,1.76,3.82c.93-.23,1.85-.47,2.74-.72C148.1,277.2,146.85,275.58,145.55,274Z"/><path class="cls-1" d="M159.48,271.14l-3.17-1.06c-.35-.13-.7-.29-1.06-.4-1.34-.41-2.68-.86-4-1.26.76,1.83,1.43,3.71,2,5.63a16.14,16.14,0,0,0,2.07,2.65c.06.05.11.12.16.17q2.78-1,5.29-2.11C160.32,273.56,159.9,272.35,159.48,271.14Z"/><path class="cls-1" d="M132.26,247.89c.8,1.61,1.47,3.28,2.35,4.85a25.65,25.65,0,0,0,2.23,3.11,25,25,0,0,0,3.18,3.94,21,21,0,0,1,1.93,2c0-.14,0-.27,0-.41,0-1.31,0-2.62-.1-3.93-.86-1.57-1.78-3.13-2.78-4.66a32.56,32.56,0,0,0-6.27-7.24c-.56.27-1.13.53-1.7.76l.27.35A12.19,12.19,0,0,1,132.26,247.89Z"/><path class="cls-1" d="M90.49,277.11c-1.14-1.67-1.77-3.6-2.82-5.35-.33-.23-.67-.45-1-.67-2.74-1.86-5.46-3.77-8.22-5.6a7.48,7.48,0,0,0-.83-.48.53.53,0,0,1,0,.12c.16.62.47,1.19.64,1.8.51,1.89,1,3.77,1.46,5.66,0,.06.08.11.09.18.23.92.47,1.84.67,2.77.14.71,0,1.6.35,2.12a5.3,5.3,0,0,1,.86,3,1.54,1.54,0,0,0,.29.88,2.86,2.86,0,0,1,.44.71l.5.54c2.86.19,5.84.36,8.91.48-.38-1.76-.69-3.54-1-5.31A2.26,2.26,0,0,0,90.49,277.11Z"/><path class="cls-1" d="M67.56,195.9c1.65,1.11,3.26,2.28,4.8,3.53,1.32,1.07,2.54,2.29,3.81,3.43,2,1.78,4,3.48,5.93,5.34s3.36,3.7,5.08,5.52c1.88,2,3.89,3.86,5.67,5.92,2,2.36,3.89,4.86,5.8,7.31l2.52,3.2.26.15c.28.15.76-.05,1.15-.09a2.42,2.42,0,0,0-.18-1c-1.08-1.55-2.15-3.1-3.33-4.59s-2.67-2.77-3.3-4.67a.8.8,0,0,0-.32-.4c-1.93-1-2.75-3-4.14-4.47a27.72,27.72,0,0,0-3.06-3.38c-.39-.3-.48-1-.82-1.72.49.13.69.12.78.22,1.21,1.25,2.39,2.52,3.58,3.77.41.42,1.1.67,1.31,1.15.87,2,3.23,2.8,3.87,5,0,.16.32.25.46.4.87,1,1.75,2.1,2.61,3.16.23.29.39.65.62.95.85,1.12,1.72,2.22,2.6,3.32.49.62,1.26,1.14,1.45,1.83a5.93,5.93,0,0,0,2.36,3.28c1.23,1,2.38,2,3.63,3,.91.67,1.87,1.25,2.82,1.87V226.72c-.56-.93-1.06-1.92-1.63-2.85-.18-.29-.41-.55-.61-.83-.46-.65-.92-1.29-1.35-1.95-.25-.37-.41-.81-.67-1.17q-2.46-3.19-5-6.38c-.31-.4-.64-.79-1-1.19l-4.59-1c-2-.42-4-.77-5.93-1.15,0-.12,0-.23,0-.35a4,4,0,0,1,1.12-.35c2.44,0,4.89,0,7.32.13-1-1.27-1.92-2.55-2.92-3.79-1.26-1.55-2.62-3-3.94-4.51-1.91-2.14-3.8-4.31-5.74-6.42-.58-.63-1.38-1.06-2-1.65-2.4-2.36-4.73-4.76-7.14-7.1-1-.93-2.06-1.72-3.11-2.57-1.76-1.45-3.51-2.93-5.31-4.34-1.16-.91-2.41-1.71-3.6-2.6-.07,0-.13-.1-.2-.15v19.32A.45.45,0,0,1,67.56,195.9Z"/><path class="cls-1" d="M151,241.34c1.29,2,2.36,4.14,3.53,6.22.95,1.68,1.93,3.33,2.86,5,1.8.09,3.59.2,5.36.44a55.46,55.46,0,0,1,7,1.53c3.5,1,7,2,10.41,3.06,0-.19-.08-.38-.1-.57a24.68,24.68,0,0,1-.39-2.83c-.91-.8-1.83-1.61-2.74-2.43-2-1.81-3.93-3.7-6-5.45s-4.39-3.54-6.62-5.26c-1.85-1.42-3.69-2.82-5.6-4.14-1.7-1.18-3.5-2.21-5.22-3.35-2-1.29-3.79-2.81-5.84-3.92l-2.49-1.35a29.6,29.6,0,0,1-.76,3.15C146.6,234.72,148.82,238,151,241.34Z"/><path class="cls-1" d="M189.15,246.61c-1.44-1.62-2.87-3.23-4.33-4.82-.71-.77-1.68-1.28-2.42-2-.37-.35-.72-.71-1.07-1.06.19.89.38,1.79.55,2.69.31,1.51.45,3.06.66,4.59.18,1.32.41,2.64.58,4,1,.86,2,1.73,3,2.64A49.33,49.33,0,0,0,189.15,246.61Z"/><path class="cls-1" d="M109.93,214l.53.63c.44.52,1,1,1.39,1.52.58.8,1.12,1.62,1.67,2.43v-3.68Z"/><path class="cls-1" d="M157.09,264.81c-1-1.81-2.45-3.37-2.52-5.59a2.26,2.26,0,0,0-.35-.88c-1.33-2.46-2.68-4.9-4-7.38s-2.42-4.83-3.75-7.18-2.86-4.74-4.33-7.08c-.14.23-.28.47-.43.7.83,3.3,1.48,6.65,2.11,10,.35,1.89.55,3.82.75,5.74.12,1.2.2,2.39.27,3.59a62.36,62.36,0,0,1,4.86,8.34c1.52.28,3,.55,4.54.89,1.29.29,2.55.67,3.82,1.05-.15-.46-.31-.92-.47-1.38A6.43,6.43,0,0,0,157.09,264.81Z"/><path class="cls-1" d="M140.59,279.91l-2.47-6.43c-.34-.87-.6-1.77-1-2.62-.47-1-1.11-1.92-1.54-2.93s-.81-2-1.19-2.95l-2.07-.29c-2.38-.38-4.76-.7-7.48-1.1a3.65,3.65,0,0,1,3.47-1.53c1.72.17,3.45.37,5.17.58a1.8,1.8,0,0,1-.08-.21,2.43,2.43,0,0,0-.47-.81c-1.63-1.65-2.67-3.73-4.34-5.41-1.52-1.5-3.19-2.7-4.78-4.06a47.9,47.9,0,0,0-3.73-3.34c-.29-.21-.59-.43-.87-.66-1.07,0-2.1-.05-3.11-.15a.47.47,0,0,1,.06.09,14.67,14.67,0,0,1,1,1.71c.36.77.61,1.59,1,2.36.27.57.68,1.09,1,1.66.84,1.75,1.64,3.53,2.46,5.29,0,.06.1.1.12.17.39.86.8,1.72,1.15,2.6.27.67.28,1.57.74,2a5.35,5.35,0,0,1,1.4,2.83,1.52,1.52,0,0,0,.43.81,4.2,4.2,0,0,1,1.23,2.89,6.27,6.27,0,0,0,.85,2.84,6.46,6.46,0,0,1,1.25,2.78c.1.5.23,1,.35,1.48l.56,1.08c.5,1,1.06,2,1.46,3.09.06.18.14.37.21.55q4.88-.58,9.27-1.41Q140.56,280.38,140.59,279.91Z"/><path class="cls-1" d="M79,279.37c-.16-.76-.47-1.5-.63-2.26-.44-2.09-.83-4.18-1.25-6.27,0-.16-.19-.29-.25-.45-.26-.73-.52-1.46-.73-2.21-.42-1.52-.81-3.05-1.2-4.58l-6.85-3.8-.8-.47v21.45c.18.33,10.7,1.65,12.19,1.77a.59.59,0,0,1,0-.14C79.27,281.4,79.18,280.37,79,279.37Z"/><path class="cls-1" d="M75.21,256.28a1.38,1.38,0,0,0-.09,1.83c.32.55.57,1.12.84,1.68,1.07.51,2.11,1,3.14,1.6l.69.4c-1.54-1.63-2.89-3.47-4.37-5.3Z"/><path class="cls-1" d="M73.81,178.08c1.81,1.33,3.72,2.54,5.46,3.95,2,1.59,3.86,3.34,5.77,5s3.77,3.27,5.55,5c2,2,3.84,4.3,5.94,6.24a53,53,0,0,1,6,6.61c1.42,1.87,2.92,3.68,4.43,5.49l2.13.44c1.48.33,3,.68,4.42,1v-9.51c-1.51-1.34-3-2.64-4.63-3.88-3.64-2.84-7.52-5.36-11.34-8-2.23-1.53-4.53-3-6.82-4.4-1.71-1.07-3.44-2.09-5.17-3.12l.09-.34a4.16,4.16,0,0,1,1.18.06c2.54.95,5.13,1.83,7.58,3a55.34,55.34,0,0,1,6.22,3.54c3.36,2.15,6.66,4.37,10,6.64,1,.7,2,1.49,2.94,2.28v-2.56h7.81A23.32,23.32,0,0,1,142,207.2h.18s-.08.07-.11.11A29.34,29.34,0,0,1,145.66,222c0,.59,0,1.16,0,1.72,1.17.6,2.34,1.2,3.5,1.81,2.64,1.37,5.17,2.95,7.68,4.54,2.35,1.48,4.64,3.05,6.9,4.66,3.55,2.53,7.1,5.08,10.58,7.72,1.67,1.28,3.23,2.7,4.82,4.09-.16-1.59-.28-3.19-.5-4.77-.26-1.81-.62-3.61-1-5.41-.1-.56-.22-1.12-.34-1.68-1.19-1.2-2.39-2.4-3.6-3.57s-2.51-2.09-3.78-3.13c-2.15-1.77-4.27-3.57-6.47-5.29-1.41-1.11-2.93-2.08-4.37-3.15-2-1.46-3.83-3.06-5.86-4.41-3.14-2.1-6.4-4-9.56-6.07-.39-.26-.5-1-.74-1.46.46-.12,1-.47,1.36-.32,1.82.79,3.61,1.65,5.35,2.61,1.5.81,2.92,1.79,4.37,2.69,2.27,1.39,4.6,2.69,6.79,4.18s4,3,6,4.51c2.21,1.62,4.52,3.09,6.65,4.8.72.58,1.43,1.18,2.13,1.78-.36-1.4-.6-2.85-1.09-4.21-1.33-3.67-2.68-7.34-4.2-10.94a59.43,59.43,0,0,0-3.63-7.22c-1.51-2.58-3.27-5-5-7.51-1-1.45-2-2.87-3.08-4.29-.77-1.05-1.58-2.07-2.38-3.11l.14-.18a2.35,2.35,0,0,1,.7.32c1.3,1.18,2.66,2.32,3.87,3.59a36.38,36.38,0,0,1,2.92,3.62q2.26,3.15,4.43,6.38c.63.94,1.16,2,1.72,3,1,1.84,2.2,3.63,3.07,5.55,1.4,3.12,2.66,6.3,3.89,9.5.68,1.8,1.23,3.66,1.76,5.51.35,1.24.67,2.48,1,3.73l.74.66c2.26,2,4.6,4,6.75,6.11,1.25,1.24,2.42,2.55,3.6,3.85a58.08,58.08,0,0,0,1.95-8l-.16-.06c.12-.39.24-.78.35-1.17a69.59,69.59,0,0,0,.76-10.33,51.28,51.28,0,0,0-2.77-16.73,52.24,52.24,0,0,0-22.22-7.5l.09-1.58c2.28.08,4.67-.27,6.81.29a112.7,112.7,0,0,1,13.59,4.51c-5.38-11.75-15.59-21.41-30.64-25.84v-1.2c20.12-9.31,28.53-27,28.53-43.85,0-14.12-4.51-28.23-16.22-37.84-15.32-12.61-35.13-14.42-54.06-14.42s-36.63,1.2-49.55,3.91v90.94c.54.34,1.08.68,1.61,1C70.58,175.53,72.15,176.86,73.81,178.08Zm39.71-64.16c2.4-.9,5.7-1.2,9.61-1.2,12.31,0,18.62,10.21,18.62,23.42,0,14.42-8.41,25.23-20.72,25.23h-7.51Z"/><path class="cls-1" d="M71.37,216.91c1,.27,2,.55,3,.88,2.24.77,4.43,1.72,6.63,2.6,1.89.76,3.78,1.51,5.65,2.32s3.71,1.68,5.54,2.56l.71.35c-.23-.32-.45-.65-.69-1-.94-1.33-2.08-2.52-3.13-3.76-1.81-2.13-3.57-4.28-5.42-6.37-1.18-1.35-2.51-2.58-3.74-3.89-1.66-1.8-3.21-3.7-5-5.4-2.51-2.42-5.14-4.72-7.68-7.1v11.79a52.33,52.33,0,0,1,3.55,6C71,216.23,71.18,216.57,71.37,216.91Z"/><path class="cls-1" d="M72.72,257a11.14,11.14,0,0,0-2.5-5.63c-1-.83-2-1.6-3-2.39v6.59c1.62.73,3.2,1.58,4.81,2.36.41.21.83.4,1.25.6l-.3-.88C73,257.46,72.75,257.26,72.72,257Z"/><path class="cls-1" d="M141.41,252.24a35,35,0,0,0-.29-4c-.45-2.7-.91-5.4-1.44-8.08a22.06,22.06,0,0,1-5.6,4.63A65.85,65.85,0,0,1,141.41,252.24Z"/><path class="cls-1" d="M78,228.54c.64,1.35,1.18,2.73,1.82,4.07.8,1.67,1.66,3.31,2.49,5l.38.76c1.07.68,2.14,1.39,3.15,2.16,4.19,3.2,8.23,6.59,12.23,10,2.25,1.94,4.35,4.06,6.44,6.18,1.94,2,3.81,4,5.64,6.12,2.88,3.27,5.75,6.57,8.53,9.93,1.52,1.83,2.84,3.83,4.25,5.75l.68.9c-.28-.83-.55-1.67-.85-2.48-.16-.4-.38-.75-.56-1.14-.41-.87-.82-1.74-1.19-2.62-.22-.5-.3-1.07-.55-1.55q-2.25-4.38-4.54-8.74c-.51-1-1.08-1.91-1.59-2.89-1.31-2.54-2.53-5.13-3.9-7.64-1.15-2.13-2.47-4.18-3.73-6.26-1.8-3-3.59-6-5.46-9-.55-.89-1.42-1.57-2-2.42l-1.45-2.1L91.37,229c-.17-.1-.38-.16-.56-.26l-3.51-2a8.08,8.08,0,0,0-.85-.37c-1.51-.65-3-1.28-4.55-1.95-2.5-1.09-5-2.22-7.47-3.3-.3-.12-.61-.22-.91-.31,1.11,2,2.25,3.93,3.36,5.91C77.22,227.39,77.67,227.93,78,228.54Z"/><path class="cls-1" d="M115.63,252.12c-.26-.58-.54-1.16-.81-1.74,0-.06-.1-.1-.13-.16-.38-.76-.74-1.52-1.14-2.27s-.86-1.53-1.3-2.28c-.12-.21-.35-.37-.43-.59a11.21,11.21,0,0,0-3.62-5.23c-.25-.21-.51-.4-.76-.6.8,1.26,1.6,2.52,2.5,3.71A63.05,63.05,0,0,1,115.63,252.12Z"/><path class="cls-1" d="M114.48,275.71c-1.67-2.26-3.47-4.45-5.25-6.63-1.47-1.8-3-3.59-4.5-5.32-1.38-1.53-2.9-2.94-4.32-4.45-1.6-1.71-3-3.6-4.78-5.15l-.06,0a1.07,1.07,0,0,1-.4-.24,8.55,8.55,0,0,1-.65-.7c-3-2.71-6.1-5.4-9.22-8,.15.39.28.79.43,1.19.93,2.39,2,4.71,2.9,7.11s1.63,4.93,2.45,7.39c.15.42.38.82.57,1.23a8.54,8.54,0,0,1,.65,1.41c.5,1.72.87,3.49,1.44,5.19,0,.11.08.21.13.32A62.47,62.47,0,0,1,98,273.71l.76.55c1.59,1.15,3.18,2.32,4.7,3.57,1.8,1.45,3.48,3,5.28,4.49.12.09.89.59,1.85,1.25q4.71-.07,9.06-.32l-.61-.86C117.52,280.18,116.09,277.88,114.48,275.71Z"/><path class="cls-1" d="M75.54,233.91c-.12-.27-.25-.54-.36-.81s-.25-.87-.45-1.27c-1.22-2.4-2.48-4.79-3.73-7.18-.43-.8-.9-1.57-1.31-2.38-.53-1-1-2.09-1.57-3.15l-.85-.28v10.63c2,1,3.9,2,5.84,3C73.94,232.91,74.74,233.4,75.54,233.91Z"/><path class="cls-1" d="M244.61,258.32a105.47,105.47,0,0,0-16.68-24.58l-1.32-.19Z"/><path class="cls-1" d="M222.42,227.78l2.8,3.85a3.39,3.39,0,0,1,.71-.11C224.77,230.26,223.61,229,222.42,227.78Z"/><path class="cls-1" d="M280.74,245.09c2.27,1,4.51,2,6.75,3.13,1.77.85,3.54,1.71,5.26,2.66s3.23,1.88,4.86,2.81v-3.92c-.56-.77-1.13-1.54-1.72-2.29-1.44-1.83-3.25-3.38-4-5.69a1,1,0,0,0-.13-.23H272.09l1.78.72C276.17,243.2,278.47,244.11,280.74,245.09Z"/><path class="cls-1" d="M221.65,252.86c.92.17,1.84.35,2.76.56,1.9.43,3.79,1.05,5.68,1.58,2.51.69,5.06,1.26,7.52,2.1l.36.13c-1.68-3.1-3.43-6.17-5.29-9.15a132.77,132.77,0,0,0-31.17-34.81v23.07A84.05,84.05,0,0,1,221.65,252.86Z"/><path class="cls-1" d="M294.93,257.59c-.21-.14-.41-.3-.63-.42-2.59-1.47-5.18-2.92-7.77-4.38-.22-.12-.47-.19-.69-.32-1.43-.78-2.84-1.58-4.28-2.37-.33-.18-.68-.3-1-.45l-3-1.27,4.06,4.82c.53.64,1.19,1.18,1.68,1.86,1.06,1.46,2,3,3.08,4.46,1.32,1.83,2.71,3.61,4.06,5.41a33.51,33.51,0,0,1,2,2.77c1.4,2.31,2.65,4.68,4.07,7,.37.6.76,1.2,1.14,1.79v-17C296.71,258.84,295.82,258.21,294.93,257.59Z"/><path class="cls-1" d="M211.41,265.74c.53.65,1.2,1.19,1.69,1.86,1.06,1.46,2,3,3.08,4.47.08.12.17.23.26.35l1.78.56c.87.29,1.66.78,2.52,1.12,2.3.9,4.63,1.72,6.9,2.69.92.39,1.82.82,2.7,1.27a103.7,103.7,0,0,0-12.69-23,37,37,0,0,1-4.7-1c-3.42-1.08-7-1.36-10.46-1.91l-1-.15v1.7l.25.31C204.83,258,208.18,261.85,211.41,265.74Z"/><path class="cls-1" d="M228.46,266.67l5.43,13.15,1.67.78A118.49,118.49,0,0,0,228.46,266.67Z"/><path class="cls-1" d="M205.07,268.93l3,.92-4.19-5.39c-.68-.86-1.41-1.68-2.09-2.55l-.3-.41v5.43Z"/><path class="cls-1" d="M286.57,269.76a35.36,35.36,0,0,1-3.25-5.26c-.22-.36-.51-.67-.75-1-.55-.79-1.12-1.56-1.65-2.37-.3-.46-.48-1-.82-1.42-2-2.61-4-5.19-6-7.78-.68-.86-1.41-1.69-2.08-2.56-1.32-1.71-2.61-3.43-3.92-5.14-.72-.32-1.45-.65-2.18-1-.91-.39-1.9-.58-2.86-.9l-2.38-.8h-6.49c1.86,2.2,3.59,4.51,5.36,6.79s3.81,4.74,5.54,7.23c2,2.87,3.66,6,5.75,8.78a63.29,63.29,0,0,1,5.74,9.24c.4.79.82,1.57,1.24,2.35,1.38,1.11,2.67,2.3,4.09,3.34,1.21.9,2.51,1.67,3.77,2.51h8.49c-.8-1.28-1.59-2.55-2.41-3.82C290,275.25,288.79,272.23,286.57,269.76Z"/><path class="cls-1" d="M293.89,242.44q1.61,1.91,3.18,3.84a9.07,9.07,0,0,1,.54.83v-5.55h-4.43c.05.12.11.24.16.38S293.73,242.25,293.89,242.44Z"/><path class="cls-1" d="M275,281.14c-1.38-.92-2.79-1.79-4.17-2.71s-2.75-1.9-4.13-2.85c-.21-.14-.41-.3-.62-.42l-7.78-4.38c-.22-.12-.47-.2-.69-.32-1.42-.78-2.84-1.59-4.27-2.37-.33-.18-.68-.3-1-.45-1.53-.65-3.06-1.29-4.58-1.95,2.17,5.36,4.34,10.72,6.44,16.11h21.18c-.07-.14-.16-.28-.23-.42Z"/><path class="cls-1" d="M267.54,267.48c-1.82-3-3.6-6-5.46-9-.56-.88-1.41-1.57-2-2.42-2.35-3.34-4.62-6.74-7-10.06-1-1.33-2.1-2.51-3.16-3.76-.2-.24-.4-.49-.61-.73l-1.24-1.48c-.87-1.05-1.76-2.07-2.64-3.1a31.9,31.9,0,0,1-4.28-.92,49.36,49.36,0,0,0-8.21-1.58c5.31,6.73,9.77,14.18,14.57,21.33.56.84.79,3,.36,3.27a3.8,3.8,0,0,0-1.48,1.46c2.06.83,4.14,1.65,6.18,2.55,2.27,1,4.51,2,6.73,3.11,1.78.85,3.56,1.72,5.28,2.66,2,1.09,3.87,2.3,5.85,3.38C269.49,270.64,268.49,269.07,267.54,267.48Z"/><path class="cls-1" d="M230.9,232l3.2.37c2.64.31,5.29.6,7.93.95-.43-.43-.85-.86-1.26-1.3-1.66-1.78-3.21-3.69-5-5.39-2.71-2.62-5.58-5.09-8.31-7.69-.34-.33-.32-1-.46-1.57.47,0,1.08-.28,1.39-.07,1.64,1.11,3.25,2.28,4.8,3.53,1.32,1.08,2.54,2.29,3.81,3.43,2,1.78,4,3.48,5.92,5.34,1.56,1.54,3,3.21,4.45,4.83l.65.11v-11.8c-1.39-1.39-2.78-2.78-4.2-4.14-1.17-1.14-2.51-2.1-3.77-3.13-2.16-1.77-4.28-3.57-6.47-5.29-1.42-1.11-2.93-2.09-4.38-3.16-2-1.46-3.82-3.05-5.86-4.41-3.14-2.09-.67-3.44.78-2.55,2.28,1.39,4.6,2.7,6.79,4.19s4,3,6,4.51c2.2,1.62,4.52,3.09,6.65,4.8,1.52,1.22,3,2.53,4.45,3.84V195.91H292.2V157.47H248.06V119.63h46.25V79.39h-92.8V207.53A106.85,106.85,0,0,1,230.9,232Z"/><path class="cls-1" d="M228.94,281.21c-.33-.19-.64-.41-1-.58-1.71-.89-3.39-1.85-5.15-2.63-1-.44-2-.82-3.09-1.2l.51.67c.68.91,1.41,1.8,2,2.78.07.12.14.25.22.37l.61.47.89.71h6Z"/><path class="cls-1" d="M214.45,251.38l.47.08c-1.68-2.09-3.46-4.13-5.32-6.11a45.15,45.15,0,0,0-8.09-6.83v11.32l4.4.52C208.76,250.69,211.61,251,214.45,251.38Z"/><path class="cls-1" d="M240.83,262.62l-3.12-1.37c-.92-.39-1.92-.59-2.86-.91-2.8-.93-5.58-1.87-8.37-2.81-.36-.12-.7-.28-1.06-.39l-.3-.1a87.48,87.48,0,0,1,9.31,14.87,103.75,103.75,0,0,1,4.16,9.89h11.54a18.15,18.15,0,0,0-.83-2C246.49,274.05,243.74,268.29,240.83,262.62Z"/><path class="cls-1" d="M419.52,280.11c-.07-.22-.27-.42-.3-.64a11.34,11.34,0,0,0-2.63-5.81A63.33,63.33,0,0,0,411,268c-1-1-1.95-1.95-2.92-2.92-.14-.15-.29-.3-.44-.44l-1.33-1.1c1.07,1.88,2.15,3.76,3.21,5.65.41.73,1,1.38,1.32,2.13.23.49.45,1,.67,1.48.95,1.28,1.85,2.6,2.8,3.88,1.24,1.7,2.55,3.37,3.77,5.09h2C419.92,281.24,419.73,280.68,419.52,280.11Z"/><path class="cls-1" d="M346.29,259.49q1.63,1.77,3.24,3.57l2.73,3.15q-.87-2.47-1.83-4.9c-.67-.35-1.34-.68-2-1S347,259.76,346.29,259.49Z"/><path class="cls-1" d="M421.62,280.55c.23.4.43.82.63,1.25h1.94c-.81-1-1.61-2.07-2.46-3.12A1.38,1.38,0,0,0,421.62,280.55Z"/><path class="cls-1" d="M354.2,259.55a100.68,100.68,0,0,0-10.91-18.85q4.74,9.09,9.49,18.23l.46.19Z"/><path class="cls-1" d="M424.46,251c.36.77.71,1.55,1.05,2.33a61.82,61.82,0,0,1,8.91,12.12l0-.23c-.92-3.67-1.84-7.67-2.76-11.81-2.38-.89-4.81-1.67-7.24-2.42Z"/><path class="cls-1" d="M316.46,281.8c-.46-1-.93-2-1.39-3,0-.07-.13-.12-.17-.19-.45-.92-.9-1.85-1.39-2.76s-1-1.86-1.57-2.78a1.28,1.28,0,0,0-.23-.29v9Z"/><path class="cls-1" d="M314.66,264.37c1.3.92,2.51,1.95,3.78,2.92,1.64,1.25,3.25,2.55,4.95,3.7a33.38,33.38,0,0,0,3.35,1.77,2.34,2.34,0,0,0-.28-1.18c-.65-1.4-1.3-2.81-2-4.21a7,7,0,0,0-.36-.66c-1.41-2.25-2.8-4.49-4.23-6.72-1.73-2.73-2.94-5.75-5.14-8.22a29.29,29.29,0,0,1-3.06-4.88v15.55C312.7,263.08,313.7,263.69,314.66,264.37Z"/><path class="cls-1" d="M317,235.47c2.75,1.74,5.63,3.31,8.22,5.28,4.18,3.2,8.22,6.59,12.22,10,1.41,1.22,2.77,2.51,4.1,3.83.75.24,1.52.47,2.27.72s1.67.77,2.52,1.11,1.65.64,2.48.95l0,0a101,101,0,0,0-25.63-35.71,42.59,42.59,0,0,0-11.45-7.37v18.06l.79.4C314.05,233.54,315.51,234.53,317,235.47Z"/><path class="cls-1" d="M349.53,245.27a150.16,150.16,0,0,1,8,15.9l.48.24V230.59c-2.33-1.24-4.69-2.43-7-3.65s-4.86-2.4-7.3-3.56c-1.83-.85-3.68-1.65-5.52-2.47a2,2,0,0,0,.06-.34,4,4,0,0,1,1.18-.09c2.64.64,5.31,1.2,7.88,2a55.15,55.15,0,0,1,6.6,2.77c1.38.67,2.76,1.36,4.13,2.05V205.76c0-1.14.38-1.44,2.19-1.44h2.32c8.5,0,13.66,4,16.89,19.11,2,2.34,3.85,4.82,5.75,7.26s3.81,4.74,5.54,7.23c2,2.87,3.66,6,5.75,8.78a62,62,0,0,1,5.35,8.51l1.7,1.22c1.31.95,2.61,1.91,3.86,2.93,1.48,1.2,2.87,2.5,4.34,3.69a21.63,21.63,0,0,0,3.1,2.27l2,1.52-.05-.06.08.09c1,1.14,1.91,2.38,2.95,3.48s2.21,2.08,3.27,3.16,1.75,2,2.62,2.92c1.14,1.26,2.25,2.54,3.45,3.73a16.38,16.38,0,0,0,1.89,1.5l.29-1.4c-.24-.95-.49-1.91-.74-2.86-.06-.2-.12-.4-.19-.6-.81-2-1.61-4-2.42-6.05-1-2.45-1.53-5.07-3-7.4a29.59,29.59,0,0,1-1.85-4.73c-.13-.32-.31-.62-.46-.93-.33-.72-.67-1.43-1-2.16-.17-.41-.24-.87-.45-1.27-.86-1.69-1.75-3.37-2.62-5.06-2.5-.76-5-1.43-7.54-2.1-1.94-.51-3.91-1-5.87-1.44v-.35a4,4,0,0,1,1.14-.29c2.71.15,5.43.22,8.12.58.82.12,1.64.27,2.47.44-.26-.44-.5-.89-.73-1.33-1.07-2.09-2.08-4.22-3.2-6.28-1-1.75-2-3.43-3.07-5.14-1.48-2.46-2.95-4.93-4.48-7.36-.46-.72-1.16-1.28-1.66-2-1-1.47-2-2.95-3.07-4.43-.7-.44-1.42-.88-2.14-1.3-2.6-1.48-5.33-2.74-8-4.06-1.58-.77-3.19-1.48-4.79-2.19-1.2-.53-2.41-1-3.62-1.52a1.7,1.7,0,0,1,0-.22,2.85,2.85,0,0,1,.76-.08c1.71.38,3.45.7,5.14,1.2a34.9,34.9,0,0,1,4.32,1.7c1.91.86,3.8,1.76,5.68,2.68l0,0c-.78-1.09-1.73-2.06-2.59-3.09-1.48-1.74-2.93-3.51-4.45-5.23-1-1.11-2.06-2.12-3.06-3.2-1.37-1.47-2.65-3-4.08-4.43-2.22-2.15-4.58-4.19-6.83-6.32-.28-.27-.26-.85-.38-1.29.39,0,.9-.23,1.15-.05,1.35.91,2.67,1.87,3.93,2.89,1.09.89,2.09,1.89,3.14,2.82,1.62,1.47,3.31,2.86,4.86,4.39s2.77,3,4.18,4.54,3.2,3.16,4.67,4.86c1.67,1.93,3.18,4,4.75,6l1.56,2c1,.58,2,1.17,2.9,1.84,2.76,2,5.44,4.15,8.09,6.32,1.5,1.22,2.89,2.56,4.27,3.91s2.55,2.56,3.77,3.88l1.82,2,1.64.2a9.15,9.15,0,0,1,1.13.25c-.45-2.26-.88-4.51-1.29-6.69-1.81-.86-3.65-1.65-5.48-2.46l.06-.35a4,4,0,0,1,1.17-.08l3.88.92-.71-3.94c-3.61-19.82-10.21-31.83-23.43-37.84v-.6c20.73-9.61,30.63-30,30.63-49.85,0-18-3.6-31.54-16.81-43.25-14.11-12.61-35.44-15.32-57.66-15.32a282.73,282.73,0,0,0-47.16,3.91v129.9A82,82,0,0,1,349.53,245.27ZM358,115.72c1.81-.9,5.41-1.2,8.42-1.2,14.41.6,20.11,11.72,20.11,26.43S379,168.58,364,168.58h-6Z"/><path class="cls-1" d="M353.88,276c-1.68-2.27-3.47-4.45-5.25-6.63-1.47-1.81-2.94-3.59-4.5-5.31-1.38-1.54-2.9-2.95-4.31-4.45s-2.57-3-3.94-4.33c-1.33-.45-2.65-.87-4-1.33-2.27-.8-4.56-1.55-7.16-2.42a3.66,3.66,0,0,1,3.69-.89l3.48,1c-3.47-3.06-7-6.09-10.58-9a94,94,0,0,0-9.63-6.76v1.57c1,1.35,1.85,2.75,2.82,4.08,1.32,1.82,2.71,3.6,4.06,5.4.68.91,1.41,1.8,2,2.77,1.38,2.3,2.66,4.68,4.06,7,1.64,2.66,3.45,5.2,5,7.88s3,5.55,4.56,8.31a13.58,13.58,0,0,0,.95,1.34,11.71,11.71,0,0,1,1.09,1.55c1,1.95,1.8,4,2.86,5.89l.09.15h18.12c-.15-.49-.3-1-.46-1.46C355.92,278.87,354.93,277.39,353.88,276Z"/><path class="cls-1" d="M321.46,276.87c-2.52-1.75-4.74-3.94-7.2-6a1.67,1.67,0,0,0,.28,2.26c.5.6.94,1.25,1.41,1.89.26.33.53.65.76,1a20.4,20.4,0,0,1,1.2,2.08c.44.93.75,1.93,1.19,2.86a6.06,6.06,0,0,0,.48.86H327l-1-.86A59.35,59.35,0,0,0,321.46,276.87Z"/><path class="cls-1" d="M408.63,279.52c-.4-.87-.82-1.74-1.19-2.63-.22-.5-.3-1.06-.55-1.54h0c-.33-.48-.67-1-1-1.43-1.67-2.26-3.46-4.44-5.25-6.63-1.47-1.8-2.95-3.59-4.51-5.31-1.38-1.53-2.89-3-4.31-4.45-1.61-1.71-3-3.6-4.78-5.16l-3.7-3.28c2.63,15.45,5.84,28.59,7.67,32.71h18.6c-.14-.39-.27-.77-.41-1.15S408.81,279.9,408.63,279.52Z"/><path class="cls-1" d="M387.28,245.86c1.89,1.06,3.71,2.26,5.54,3.43-1.7-2.82-3.39-5.64-5.14-8.43-.56-.88-1.42-1.56-2-2.42-1.66-2.36-3.28-4.73-4.94-7.1.13.88.25,1.77.37,2.71.37,2.92.78,5.83,1.22,8.71l1.91,1.56C385.25,244.81,386.28,245.31,387.28,245.86Z"/><path class="cls-1" d="M430.77,249.08c-.18-.27-.43-.59-.74-1-1-1.42-2-2.89-3.08-4.27s-2.32-2.83-3.5-4.22l-.39-.44c-1.83-.34-3.68-.54-5.51-.82l-.25,0,0,0c1.56,3.07,3.3,6.06,5,9.07,2.89.8,5.76,1.65,8.62,2.53C430.89,249.64,430.84,249.35,430.77,249.08Z"/><path class="cls-1" d="M421.1,236.94c-.22-.25-.44-.5-.67-.74-.92-1-1.93-1.87-2.87-2.82s-2-2.29-3.19-3.27q-2.4-2.06-4.84-4.05c1,1.58,2,3.17,3.08,4.66a51.59,51.59,0,0,1,3.67,5.66l4.08.47Z"/><path class="cls-1" d="M469.66,275.59c-1.64-1.26-3.37-2.38-5-3.6s-3.05-2.45-4.65-3.55c-1.38-.19-2.76-.37-4.14-.59-2.38-.37-4.78-.7-7.48-1.09a3.62,3.62,0,0,1,3.45-1.53c1.22.12,2.42.25,3.62.39-4-2.39-8-4.73-12-6.93-1-.52-1.93-1-2.92-1.51.95,1.48,1.89,2.94,2.81,4.42.65,1,1.27,2.13,1.84,3.23.71,1.4,1.34,2.84,2,4.24s1.63,2.89,2.3,4.39c.74,1.65,1.31,3.37,2,5.05.09.22.25.42.35.64a18.72,18.72,0,0,1,.91,2.06l.18.59H476l.14-.87-1.08-.93C473.29,278.5,471.51,277,469.66,275.59Z"/><path class="cls-1" d="M440.23,240.67c2.06.57,4.16,1,6.18,1.72,1.63.55,3.22,1.21,4.82,1.86-1.47-1-3-2-4.46-2.89-2.12-1.27-4.3-2.44-6.49-3.59l-.58,2.74Z"/><path class="cls-1" d="M475.44,265.41c-1.61-1.71-3-3.6-4.78-5.16q-3.95-3.53-7.94-7l-3.36-1.86a8.08,8.08,0,0,0-.85-.37c-1.52-.65-3.05-1.28-4.56-2-2.49-1.09-5-2.22-7.47-3.3-.75-.32-1.57-.48-2.35-.74l-5-1.7-1.84,8.69.1.16.48.2c3,1.21,6.14,2.24,9,3.71,4.69,2.39,9.27,5,13.83,7.65,1.6.94,3.17,2,4.72,3l2.37.29c.9.12,1.77.46,2.67.64,2.43.47,4.87.86,7.28,1.4l.41.1.16-.88C477.35,267.37,476.38,266.4,475.44,265.41Z"/><path class="cls-1" d="M497.9,235l.66,1.18c.34.6.79,1.14,1.09,1.75.62,1.3,1.15,2.64,1.77,3.93h3.39C502.5,239.57,500.22,237.26,497.9,235Z"/><path class="cls-1" d="M551.16,238.79c-.18-.12-.34-.25-.51-.35l-3-1.69c.18.37.38.74.55,1.13,1.4,3.11,2.67,6.3,3.89,9.49.65,1.69,1.16,3.42,1.66,5.16l.07,0a74.32,74.32,0,0,1,9.85,9.73c-.3-1.45-.64-3.36-.86-4.67-.63-3.85-1.3-7.7-2.14-11.51-.07-.33-.16-.65-.24-1-1.86-1.5-3.89-2.7-5.87-4C553.41,240.37,552.29,239.57,551.16,238.79Z"/><path class="cls-1" d="M473.22,271.19c-.74-.18-1.49-.31-2.25-.44,1.29,1,2.57,1.93,3.83,2.93l2.27,1.81.52-3C476.14,272,474.7,271.55,473.22,271.19Z"/><path class="cls-1" d="M565.74,281.78a140,140,0,0,0-9.33-18.15c.2.94.4,1.87.59,2.8.3,1.52.44,3.06.64,4.59.26,1.84.59,3.66.76,5.5.12,1.32.15,2.65.19,4,.09.17.18.34.26.52s.27.52.39.78h3.93S564.49,281.76,565.74,281.78Z"/><path class="cls-1" d="M554.37,254.8c.14.52.27,1,.4,1.57A93.37,93.37,0,0,1,565.19,270c0-.19-.19-.82-.19-1-.88-1.58-3.26-5.35-4.25-6.88A33,33,0,0,0,554.37,254.8Z"/><path class="cls-1" d="M536.66,280.21c-.22-.36-.51-.67-.76-1-.55-.78-1.11-1.57-1.65-2.37-.29-.45-.47-1-.8-1.42q-3-3.9-6.05-7.78c-.68-.86-1.42-1.68-2.08-2.56-1.75-2.26-3.42-4.59-5.21-6.8-.71-.88-1.44-1.72-2.19-2.56l2.6,15.72c.48.32,1,.62,1.44.94,2,1.39,4.07,2.83,6.07,4.29,1.59,1.15,3.18,2.32,4.7,3.57.62.51,1.23,1,1.84,1.57h3C537.27,281.26,537,280.72,536.66,280.21Z"/><path class="cls-1" d="M437.69,272.17a70.82,70.82,0,0,1,2.48,7.15c.24.82.45,1.65.64,2.48h6.45q-2.08-2.66-4.42-5.14A34.61,34.61,0,0,0,437.69,272.17Z"/><path class="cls-1" d="M526.26,281c-.2-.16-.43-.28-.62-.44-1.26-1-2.5-2.07-3.77-3.1a3,3,0,0,0-.41-.29l.41,2.39c.1.14.23.28.35.43.29.36.46.79.75,1.16l.52.66h3.74Z"/><path class="cls-1" d="M434.6,265.76c.74,1.33,1.43,2.7,2.07,4.09a64.18,64.18,0,0,1,9.36,6.7c-.3-.66-.58-1.33-.87-2-.7-1.65-1.34-3.32-2-5a1.53,1.53,0,0,0-.17-.27c-1.2-2.09-2.44-4.17-3.6-6.28s-2.11-4-3.17-6.08l-1.75,8.26C434.51,265.38,434.56,265.58,434.6,265.76Z"/><path class="cls-1" d="M552.75,261.43c-.25-1.29-.51-2.57-.8-3.85-1.14-1.39-2.33-2.76-3.58-4.08a32.92,32.92,0,0,0-7.77-6.15,65,65,0,0,1,4.31,7.25c2.3,4.51,4.89,8.87,7.38,13.29.4.73,1,1.38,1.32,2.12.2.43.38.86.57,1.29-.15-1.49-.27-3-.48-4.46C553.45,265,553.1,263.22,552.75,261.43Z"/><path class="cls-1" d="M452.62,241.31c2.76,1.74,5.64,3.31,8.22,5.28,1.8,1.38,3.56,2.79,5.32,4.22.8.4,1.6.81,2.39,1.24,1.66.92,3.26,1.94,4.93,2.85a46.72,46.72,0,0,1,5.65,2.76c.31.23.61.48.9.73l.66-3.78c-2-.73-4-1.34-6-2-2.27-.8-4.56-1.55-7.16-2.43a3.69,3.69,0,0,1,3.69-.89c2.4.7,4.78,1.45,7.16,2.18l2.72.83.32-1.83-4.23-3.51c-.15-.13-.34-.23-.51-.36-1-.84-2.05-1.7-3.1-2.55a8.56,8.56,0,0,0-.77-.51c-1.37-.91-2.76-1.81-4.13-2.74-2.25-1.53-4.48-3.09-6.75-4.6-.68-.45-1.45-.76-2.18-1.15l-6.33-3.51c-.28-.16-.53-.34-.8-.48-1.41-.73-2.79-1.52-4.23-2.16-1.78-.78-3.69-1.28-5.4-2.19l-.31-.16-1.78,8.35c2.43,1.21,4.84,2.43,7.23,3.69C449.68,239.38,451.14,240.37,452.62,241.31Z"/><path class="cls-1" d="M550.59,252.57c0-.18-.13-.55-.13-.55l-.28-1.2s-.35-1.43-.6-2.11c-1.32-3.67-2.68-7.35-4.19-10.94-.43-1-.9-2-1.39-3l-.3-.14c-1.18-.65-2.34-1.31-3.52-2a7.91,7.91,0,0,0-.84-.37c-1.53-.65-3.05-1.28-4.56-2-2.5-1.09-5-2.22-7.47-3.3a14.77,14.77,0,0,0-1.63-.53c.74,1,1.46,1.91,2.2,2.86,1.88,2.4,3.81,4.74,5.55,7.23,1.9,2.74,3.5,5.69,5.46,8.38a4.8,4.8,0,0,1,.93.39A65.3,65.3,0,0,1,550.59,252.57Z"/><path class="cls-1" d="M446.66,225.66c1.89.75,3.82,1.42,5.68,2.21,1.48.63,2.9,1.42,4.35,2.12,1.93.94,3.91,1.77,5.77,2.82,2.08,1.15,4.05,2.48,6.05,3.75,1.73,1.09,3.45,2.16,5.15,3.29s3.33,2.33,5,3.52c1.19.87,2.38,1.75,3.53,2.68V246c-.06-.1-.14-.19-.2-.29-.25-.37-.4-.81-.66-1.16-1.65-2.14-3.3-4.27-5-6.39-.56-.71-1.16-1.39-1.72-2.11-1.42-1.85-2.8-3.77-4.27-5.59-1.26-1.55-2.62-3-3.95-4.5-1.91-2.15-3.79-4.32-5.74-6.43-.57-.63-1.37-1.06-2-1.66-2.39-2.35-4.73-4.76-7.14-7.09-1-.93-2.06-1.72-3.1-2.57l-1.6-1.33-3.71,17.43,1.47.46C445.31,225,446,225.39,446.66,225.66Z"/><path class="cls-1" d="M457.1,211.67c1.86,1.66,3.77,3.26,5.54,5,2.05,2,3.84,4.29,5.95,6.24a51.6,51.6,0,0,1,6,6.62c2.53,3.3,5.27,6.44,7.93,9.64.44.53,1,1,1.38,1.52.28.38.53.76.79,1.14h12a4,4,0,0,0-.25-.65q-1.85-3.6-3.73-7.18c-.42-.79-.89-1.57-1.3-2.37-.63-1.23-1.24-2.46-1.86-3.69-.85-.7-1.7-1.39-2.56-2.07-1.41-1.11-2.94-2.08-4.38-3.16-2-1.46-3.83-3-5.86-4.4-3.14-2.1-6.39-4-9.55-6.08-.4-.26-.5-1-.75-1.45.46-.12,1-.47,1.36-.32,1.82.79,3.61,1.65,5.36,2.6,1.49.82,2.9,1.8,4.36,2.69,2.27,1.39,4.6,2.7,6.8,4.19.39.26.76.54,1.15.82-.11-.19-.23-.37-.34-.55-1.48-2.46-2.95-4.93-4.49-7.36-.45-.72-1.16-1.28-1.65-2-1.93-2.75-3.8-5.54-5.75-8.27-.78-1.09-1.71-2.06-2.58-3.09-1.48-1.74-2.93-3.52-4.44-5.23-1-1.11-2.07-2.12-3.08-3.2-1.36-1.47-2.64-3-4.08-4.42-2.16-2.1-4.43-4.08-6.62-6.14l-4.94,23.29c1.31.91,2.61,1.8,3.85,2.8C453.32,208.22,455.19,210,457.1,211.67Z"/><path class="cls-1" d="M456.92,181.91c1.09.88,2.09,1.88,3.13,2.82,1.63,1.46,3.32,2.85,4.88,4.38s2.76,3,4.16,4.54c1.55,1.63,3.2,3.17,4.67,4.87,1.67,1.93,3.2,4,4.76,6s3.12,3.9,4.55,6c1.65,2.35,3,4.91,4.72,7.21a52,52,0,0,1,4.72,7.59l.65,1.24c1.29.89,2.57,1.79,3.78,2.77,2.42,1.95,4.7,4.07,7,6.14s4.6,4,6.75,6.11l.32.33h4.6l1,6c.44.44.87.89,1.34,1.32a62.8,62.8,0,0,1,7.31,8.06c3.07,4,6.42,7.83,9.65,11.73.54.65,1.2,1.18,1.68,1.86,1.07,1.46,2,3,3.09,4.47,1.32,1.82,2.71,3.6,4.06,5.4l.88,1.16h8.19c-.27-.83-.54-1.67-.85-2.48-.15-.39-.38-.75-.55-1.14-.41-.87-.82-1.73-1.2-2.62-.21-.5-.29-1.06-.54-1.54q-2.25-4.39-4.55-8.75c-.51-1-1.08-1.91-1.58-2.89-1.31-2.54-2.52-5.13-3.89-7.63-1.17-2.14-2.49-4.19-3.74-6.27-1.81-3-3.59-6-5.46-8.95-.55-.88-1.41-1.56-2-2.42-2.35-3.35-4.62-6.74-7-10.06a33.89,33.89,0,0,0-2.24-2.71l-1.11-.37c-.29-.1-.58-.24-.87-.33-1.52-.46-3-1-4.55-1.36-1.89-.45-3.86-.6-5.7-1.18a58.41,58.41,0,0,0-8.59-1.56c-2-.31-3.92-.57-6.15-.9a3,3,0,0,1,2.85-1.26c2,.21,4.07.46,6.11.7,2.34.27,4.68.52,7,.83.74.1,1.46.38,2.19.53,1.85.36,3.71.66,5.54,1.05-1-1.2-2-2.39-3.06-3.57-1.19-1.35-2.51-2.58-3.73-3.89-1.67-1.79-3.22-3.7-5-5.4l-1.6-1.51H487.4l6-38.44c1.79-10.81,4.8-33.34,6.91-45.95h.59c1.8,12.61,4.51,34.53,6,46l5.1,38.44h-5.65c1.67,1.47,3.38,2.92,5,4.48,1.78,1.76,3.37,3.7,5.09,5.52,1.88,2,3.89,3.86,5.68,5.93a.76.76,0,0,0,.11.14c1.69.45,3.38.86,5,1.42,2.25.77,4.43,1.72,6.63,2.6,1.89.76,3.79,1.51,5.65,2.32.47.2.93.42,1.4.63-1.31-2.08-2.72-4.09-4.1-6.13-1-1.45-2-2.86-3.07-4.28-.78-1.05-1.59-2.08-2.39-3.12a1.15,1.15,0,0,1,.14-.17,2.76,2.76,0,0,1,.7.31c1.3,1.18,2.66,2.32,3.87,3.6A35.18,35.18,0,0,1,539,223c1.52,2.1,3,4.23,4.44,6.37.29.44.55.89.81,1.34l.83.39c1.46.7,2.91,1.41,4.33,2.18,1.65.92,3.26,1.95,4.92,2.85.29.15.78-.05,1.17-.09-.06-.32,0-.72-.18-1-1.08-1.55-2.17-3.1-3.34-4.59s-2.67-2.77-3.3-4.67a.75.75,0,0,0-.32-.4c-1.93-1-2.75-3-4.14-4.47a27.72,27.72,0,0,0-3.06-3.38c-.38-.3-.47-1-.81-1.72.48.13.68.12.78.22,1.2,1.25,2.37,2.53,3.59,3.77.4.42,1.09.67,1.3,1.15.87,2,3.22,2.8,3.86,5,0,.16.33.25.46.4.88,1,1.75,2.1,2.61,3.16.24.29.39.65.61.95.86,1.12,1.74,2.22,2.61,3.32a9.63,9.63,0,0,0,.7.74c-.65-1.48-1.32-2.95-2-4.43s-1.48-3.19-2.24-4.77c-.58-1.17-1.19-2.33-1.79-3.49l.17-.15a2.59,2.59,0,0,1,.63.43c1.08,1.4,2.2,2.77,3.15,4.24a33.54,33.54,0,0,1,2.22,4.08c.5,1.06,1,2.11,1.47,3.17L530.34,79.39H473.88l-21.12,99.55a.48.48,0,0,1,.22.07C454.34,179.92,455.66,180.88,456.92,181.91Z"/><path class="cls-1" d="M431.57,281.8a2,2,0,0,0-.09-.71c-.08-.27-.15-.55-.22-.83l-.29,1.4.18.14Z"/><path class="cls-1" d="M434.6,265.76c0-.18-.09-.38-.14-.56l0,.23C434.48,265.53,434.54,265.65,434.6,265.76Z"/><path class="cls-1" d="M438,281.8h.78c-.67-2.4-1.44-4.77-2.3-7.13C437,277,437.51,279.42,438,281.8Z"/><path class="cls-1" d="M216,281.8l-.31-.41c-.95-.66-1.91-1.31-2.84-2-1.88-1.39-3.64-3-5.63-4.21-.06,0-5.72-4.21-5.78-4.24a2.17,2.17,0,0,0,0,.25v10.63h11.67l0,0Z"/><path class="cls-1" d="M515.77,66.15c3.18-.69,5.56.29,7.89,2.29s3.44,5.11,1.62,8a6.39,6.39,0,0,0-.73,1.65,2.57,2.57,0,0,1-3,1.63c-.92-.08,0,3,3.37,1.15a4.93,4.93,0,0,1,2.42-.28,2.08,2.08,0,0,1,1.37.45c1.51,1.65,2.59,4.61,1,6.14a8.43,8.43,0,0,0-1,1.8c-.7,1.17-1.64,1.66-2.62.73a12.64,12.64,0,0,1-1.63-1.36l-.58.51c.51.62.92,1.47,1.57,1.81,1.21,1.33.9,1.65,4.48,1.74s5.56-.64,6.14-2.1c.88-2.2.31-4-1.35-5.72A7.18,7.18,0,0,1,533.28,81c-.07-.44,1-1.12,1.53-1.63,1.15-1,1.12-1.86-.1-2.86a4.41,4.41,0,0,1-.78-.89c-.76-1-1.47-2.11-2.24-3.14-.48-.64-1.27-1.17-1.47-1.88a4,4,0,0,1,.35-2.34,9.11,9.11,0,0,1,1.34-1.81c.33-.43.56-1,1-1.29,2.2-1.44,4.56-2.66,6.68-4.23,2.67-2,5.53-3.91,7.67-6.4,6.75-7.89,9.09-17.26,8.38-27.51a8.72,8.72,0,0,1,.45-2.48,13.27,13.27,0,0,0,.55-2.28,22.55,22.55,0,0,0-.24-3.17c-.92-8.14-4.81-14.14-12.42-17.59-4.79-2.18-11.69-.76-15,3.28a6.43,6.43,0,0,1-4.73,2.62,36.47,36.47,0,0,0-4.52.66c-1.21.24-3.4,1.54-3.7,2.72,3.28-.35,7.38-.27,9.9,1.19,1,.6,3.38,8,1.17,10.81-2,2.52-4,5-5.84,7.59-1,1.4-1.53,3.11-2.51,4.5-2,2.9-4.32,5.61-6.31,8.53a35.56,35.56,0,0,0-5.62,12.75,10,10,0,0,0,.16,4.46S509.42,67.5,515.77,66.15Zm22.74-54.81a1.93,1.93,0,0,1-2.07-1.71,2.11,2.11,0,0,1,4.14,0A1.91,1.91,0,0,1,538.51,11.34Z"/><path class="cls-1" d="M506.84,58.24h0a2.18,2.18,0,0,1-1.21,1.26c-2.2,1.17-8.73,1.67-13,2.19s-12.79-1.09-15.29-3.49c-3.78-3.63-8.57-5.64-13.29-7.72-2.15-.95-4.32-1.84-6.48-2.78-.82-.36-1.62-.8-2.42-1.21l-.22.39,1.77,1.18a26.88,26.88,0,0,0-3.5-1.31c-7.05-1.6-14.14-3.09-21.19-4.7a52.45,52.45,0,0,1-7.29-2.12c-2.72-1-5.28-2.5-7.95-3.68-3.44-1.52-6.86-3.06-10.38-4.37-3.69-1.37-7.5-2.41-11.23-3.69-4.31-1.47-8.61-3-12.9-4.58-2.41-.87-4.78-1.81-7.17-2.72l-.11.27,1.6.82a10.12,10.12,0,0,0-9,1.1l.88.73-9.88,2.35c.33.05.68.14,1.05.17a76.67,76.67,0,0,1,24,5.51c6.23,2.55,12.3,5.49,18.41,8.33,2.79,1.3,5.52,2.76,8.27,4.15,4.07,2.06,8.1,4.16,12.2,6.15,3.39,1.66,6.86,3.17,10.64,4.91l-11-.52a2,2,0,0,1-.05.24l2.26.86a297.84,297.84,0,0,0-46.44-2.13l15.18,4.46a20.83,20.83,0,0,1-3.46-.58c-5.79-1.06-11.43-3.26-17.53-1.92a48.39,48.39,0,0,1-6.95.5c-.06,0-.11.11-.18.19l.43.38-2.61.37a1.22,1.22,0,0,0,0,.26l1,.37c-.32.11-.59.19-.95.29l1,.9L359.8,59c0,.11,0,.22,0,.34l4.93.87c0,.1,0,.19,0,.28l-5-.1c0,.1,0,.21,0,.31l6,.57c-2.89.45-5.37.82-7.84,1.24a1.83,1.83,0,0,0-1,.6,3.7,3.7,0,0,0-.37.42l-.09.11c-.29.36-.57.75-.88,1.17l-.06.08.18,0,.35,0q.33,0,.66-.12A76.52,76.52,0,0,1,384.31,64c11.47,1.74,22.89,3.86,34.33,5.85,9.83,1.72,19.65,3.44,29.63,4.08,12.49.81,24.86.6,37-3.16,4.77-1.48,9.75-2.25,14.51-3.74,2.89-.9,5.52-2.61,8.33-3.81a3.58,3.58,0,0,1,2.54,0h0m-5.31-.77c-2.89,1.13-5.76,2.35-8.69,3.35-2.37.81-4.82,1.37-7.25,2a7.11,7.11,0,0,1-6.19-1.15c7.19-2.49,14.72-2.84,21.85-5C506.67,61.16,506,62.08,505.36,62.49Z"/><path class="cls-1" d="M481.83,245.92V246a1.31,1.31,0,0,1,.12.11C481.91,246,481.86,246,481.83,245.92Z"/><path class="cls-1" d="M431.27,282a1,1,0,0,0,.05-.28h-.42Z"/><path class="cls-1" d="M430.7,249.86l.59.17c-.21-.27-.41-.53-.76-1C430.59,249.3,430.64,249.58,430.7,249.86Z"/><path class="cls-1" d="M516.18,247.74l-1-5.93h-4.58C512.52,243.74,514.28,245.81,516.18,247.74Z"/><path class="cls-1" d="M503.34,310.12s0-.08,0-.13l-.06-.07C503.29,310,503.32,310.05,503.34,310.12Z"/><path class="cls-1" d="M478,268.25l-.16.88,1.33.34C478.75,269.05,478.36,268.65,478,268.25Z"/><path class="cls-1" d="M33.75,248.92c.18.34.33.69.5,1-.16-.83-.32-1.65-.49-2.47,0-.2-.24-.36-.3-.55-.32-.89-.65-1.78-.9-2.69-.58-2.17-1.13-4.36-1.71-6.54,0-.09-.1-.15-.12-.23-.29-1-.55-2-.87-3s-.68-2-1.05-3c-.09-.28-.34-.52-.37-.8a13.7,13.7,0,0,0-3.2-7,75.93,75.93,0,0,0-6.8-6.86q-.78-.75-1.56-1.53c-1-.35-2.08-.69-3.12-1.05-1.87-.65-3.74-1.27-5.86-2a3,3,0,0,1,3-.73l3.09.92-6.48-5.39c-.19-.16-.42-.27-.61-.43-1.27-1-2.51-2.08-3.77-3.1a9.53,9.53,0,0,0-.94-.62c-.51-.35-1-.68-1.55-1v11.39A83.64,83.64,0,0,1,33.75,248.92Z"/><path class="cls-1" d="M5.64,249.72a13.45,13.45,0,0,0,1,1.33,13.08,13.08,0,0,1,1.09,1.54c.42.86.82,1.72,1.22,2.59l.2.06c1.67.52,3.28,1.23,4.91,1.88,3,1.21,6.13,2.24,9,3.71,3.56,1.81,7.07,3.77,10.55,5.76-.52-1.82-1.06-3.63-1.66-5.42q-1.52-4.56-3.4-8.91a29.72,29.72,0,0,0-7.79-6.34l.42-.83a18.6,18.6,0,0,1,3.6,1.79c.73.59,1.45,1.18,2.15,1.79A101.75,101.75,0,0,0,9,222.41a44.76,44.76,0,0,0-8.33-7v25.27l.44.7C2.69,244.14,4.11,247,5.64,249.72Z"/><path class="cls-1" d="M9.14,155.52c1.87,2.4,3.8,4.74,5.53,7.22,2,2.86,3.65,6,5.73,8.76a61.37,61.37,0,0,1,5.73,9.22c2.29,4.5,4.89,8.85,7.36,13.26.41.73,1,1.38,1.32,2.12.78,1.63,1.44,3.32,2.21,5,1,2,2,4,3,6,.51,1,1.06,2,1.47,3.09.17.47.35.94.51,1.41a3.05,3.05,0,0,1,.74,0c1.45.15,2.9.31,4.35.49V187.38c-.67-.8-1.34-1.59-2-2.38-1-1.1-2.06-2.11-3.06-3.19-1.37-1.47-2.64-3-4.07-4.42-2.22-2.15-4.57-4.18-6.81-6.31-.28-.27-.26-.85-.38-1.28.39,0,.89-.23,1.15-.06,1.34.91,2.66,1.87,3.92,2.89,1.09.89,2.08,1.88,3.13,2.82,1.62,1.46,3.3,2.85,4.85,4.38C45,181,46,182.2,47.11,183.41V79.68H.65v65.67c.94.94,1.85,1.89,2.71,2.89C5.38,150.58,7.24,153.08,9.14,155.52Z"/><path class="cls-1" d="M13.59,280.5c-.57-1.22-1.35-2.33-1.88-3.56-.94-2.2-1.76-4.46-2.65-6.69a2.93,2.93,0,0,0-.56-1c-2-2-3.24-4.55-5.28-6.58-.82-.81-1.69-1.55-2.57-2.27v21.24H14.07C13.92,281.27,13.77,280.88,13.59,280.5Z"/><path class="cls-1" d="M9.29,202.73c1.59,1.16,3.17,2.32,4.69,3.56,1.78,1.46,3.47,3,5.26,4.48.32.25.94.11,1.41.15a3.33,3.33,0,0,0,0-1.18c-.95-2.1-1.9-4.19-3-6.22s-2.6-3.9-2.93-6.3a1,1,0,0,0-.29-.56c-2.1-1.58-2.63-4.17-4-6.24-1-1.54-1.65-3.29-2.92-4.71-.4-.44-.35-1.27-.59-2.23.54.26.79.29.89.43,1.15,1.76,2.27,3.53,3.45,5.29.39.59,1.16,1,1.3,1.66.6,2.58,3.25,4,3.53,6.77,0,.21.35.37.46.59.82,1.44,1.64,2.88,2.43,4.34.22.4.32.86.53,1.27.78,1.52,1.58,3,2.38,4.53.46.85,1.26,1.65,1.33,2.51a7.28,7.28,0,0,0,2.11,4.44c.4.44.78.9,1.15,1.35,1.58.61,3.16,1.18,4.71,1.84s2.89,1.41,4.35,2.12,3,1.37,4.43,2.11c-.35-.86-.69-1.74-1-2.6-1.21-3-1.85-6.17-3.57-9-1.06-1.73-1.51-3.83-2.25-5.75-.15-.4-.38-.75-.56-1.13-.4-.87-.82-1.74-1.19-2.62-.21-.5-.29-1.06-.54-1.54-1.49-2.92-3-5.82-4.54-8.73-.5-1-1.07-1.91-1.58-2.88-1.3-2.54-2.52-5.12-3.88-7.62-1.17-2.13-2.47-4.18-3.73-6.26-1.81-3-3.59-6-5.45-8.93-.55-.88-1.41-1.56-2-2.42-2.35-3.33-4.62-6.72-7-10-.63-.87-1.34-1.68-2.06-2.49v46.05q1.31.83,2.58,1.68C5.27,199.84,7.29,201.28,9.29,202.73Z"/><path class="cls-1" d="M46.05,213.73l-3.44-.51c.53,1.51,1,3,1.63,4.51.91,2.34,1.94,4.63,2.87,7v-10.8Z"/><path class="cls-1" d="M27.8,243.69l4,9.73c.85.93,1.68,1.88,2.48,2.84A120.66,120.66,0,0,0,27.8,243.69Z"/><path class="cls-1" d="M46,250.11c-2.27-.79-4.56-1.54-7.15-2.42a3.64,3.64,0,0,1,3.68-.88c1.21.35,2.41.72,3.62,1.09l-.14-.21c-1.47-2.13-3.22-3.93-4.82-5.9A57.83,57.83,0,0,0,37.48,237c-2.17-2.18-4-4.72-6-7.22a1.65,1.65,0,0,0-.13,2.26c.39.69.7,1.41,1,2.11.18.38.4.74.55,1.13a20.33,20.33,0,0,1,.82,2.26c.26,1,.38,2,.64,3,.19.75.57,1.45.77,2.2.61,2.28,1.18,4.57,1.77,6.86,0,.08.09.15.11.22.28,1.12.58,2.23.81,3.36.18.87,0,1.95.43,2.57a6.63,6.63,0,0,1,1.06,3.69,1.91,1.91,0,0,0,.33,1.07c1,1.11.85,2.41.84,3.72,0,.35,0,.7,0,1.06a61.64,61.64,0,0,1,3.82,8.13c.93.66,1.85,1.33,2.77,2v-25Z"/><path class="cls-1" d="M35.16,272.49l0,0c-5.13-3.13-10.28-6.23-15.56-9.08-2.75-1.48-5.59-2.83-8.49-4,.66,1,1.43,2,2.17,2.91a30.76,30.76,0,0,0,3.86,4.79c2.51,2.16,4.24,5,6.85,7.09,2,1.61,3.43,3.91,5.12,5.91.32.38.57.91,1,1.15a6.32,6.32,0,0,1,.68.47h6.58C36.62,278.6,35.92,275.54,35.16,272.49Z"/><path class="cls-1" d="M40.7,228.51c.46-.12,1-.47,1.37-.32l.1.05a.06.06,0,0,0,0,0,4.61,4.61,0,0,0-.2-.63c-.38-.27-.76-.53-1.16-.79-.67-.45-1.45-.75-2.16-1.15-2.12-1.16-4.22-2.33-6.33-3.5-.27-.15-.52-.34-.8-.48l-.85-.45c.8.75,1.62,1.49,2.39,2.28,1.11,1.14,2.12,2.37,3.18,3.56,1.39,1.51,2.73,3.07,4.2,4.51a29.69,29.69,0,0,0,3,2.34,2.21,2.21,0,0,0-.07-1.2c-.15-.61-.31-1.22-.47-1.83-.48-.3-1-.59-1.41-.9S40.94,229,40.7,228.51Z"/><path class="cls-1" d="M167.45,256.62c-2.58-.8-5.19-1.49-7.8-2.18l-1.07-.27c.14.26.28.52.41.78,1.26,2.51,2.29,5.14,3.44,7.71q1.37,3.06,2.75,6.1c.87.24,1.72.49,2.57.78l1.68.61a50.89,50.89,0,0,0,9.54-8c.44-.45.86-.92,1.28-1.38v-.09C176.06,259.15,171.73,257.93,167.45,256.62Z"/><path class="cls-1" d="M69,240.66a6,6,0,0,0,1.73,3.64c1.05,1.17,2,2.43,3,3.56S76,249.93,77,251c.91.93,1.74,1.95,2.62,2.91.63.7,1.25,1.4,1.88,2.09,1.08,1,2.13,1.92,3.16,2.93.28.2.56.4.84.62a1.87,1.87,0,0,0-.05-1l-1-3.68c-.06-.21-.12-.4-.19-.6-.81-2-1.61-4-2.42-6-1-2.45-1.52-5.07-2.93-7.38a10.24,10.24,0,0,1-.81-1.74q-2.88-2.05-5.91-3.89c-1.46-.89-2.95-1.72-4.46-2.52v5.66l.12.21C68.26,239.29,68.92,240,69,240.66Z"/><path class="cls-1" d="M145.9,273.89a1,1,0,0,0-.59-.24c0,.64-.05,1.28-.08,1.92a26.46,26.46,0,0,0,1.75,3.82c.94-.23,1.85-.47,2.75-.72C148.44,277.08,147.19,275.47,145.9,273.89Z"/><path class="cls-1" d="M159.8,271,156.64,270c-.35-.12-.7-.28-1.06-.39-1.34-.41-2.68-.86-4-1.26q1.14,2.74,2,5.62a17.8,17.8,0,0,0,2.07,2.65l.16.16c1.84-.66,3.61-1.36,5.28-2.1C160.64,273.45,160.22,272.25,159.8,271Z"/><path class="cls-1" d="M132.64,247.84c.79,1.6,1.47,3.27,2.34,4.83a25.88,25.88,0,0,0,2.22,3.11,25.41,25.41,0,0,0,3.18,3.93,22.09,22.09,0,0,1,1.92,2v-.4c0-1.31,0-2.62-.1-3.92-.86-1.58-1.78-3.13-2.78-4.66a32.38,32.38,0,0,0-6.26-7.22c-.56.27-1.12.52-1.69.76l.27.35A11.22,11.22,0,0,1,132.64,247.84Z"/><path class="cls-1" d="M91,277c-1.13-1.68-1.77-3.59-2.81-5.35l-1-.67c-2.74-1.86-5.45-3.75-8.21-5.59a9.43,9.43,0,0,0-.83-.47.53.53,0,0,1,0,.12c.17.61.47,1.19.64,1.8.5,1.88,1,3.76,1.45,5.64,0,.06.09.12.1.18.23.92.47,1.84.66,2.76.15.71,0,1.6.35,2.12a5.38,5.38,0,0,1,.87,3,1.56,1.56,0,0,0,.28.88,2.69,2.69,0,0,1,.44.71c.17.17.33.35.5.53,2.85.19,5.83.36,8.89.48-.38-1.76-.69-3.53-1-5.3A2.23,2.23,0,0,0,91,277Z"/><path class="cls-1" d="M68.08,196c1.64,1.11,3.24,2.28,4.78,3.52,1.32,1.08,2.53,2.29,3.8,3.43,2,1.77,4,3.47,5.92,5.33s3.36,3.69,5.07,5.51c1.87,2,3.88,3.85,5.66,5.91,2,2.34,3.88,4.84,5.79,7.29.83,1.07,1.68,2.13,2.51,3.2l.26.14c.28.15.76-.05,1.15-.09,0-.32,0-.72-.18-.95-1.08-1.55-2.15-3.11-3.32-4.58s-2.67-2.77-3.3-4.67a.75.75,0,0,0-.32-.4c-1.92-1-2.74-3-4.12-4.46a29.38,29.38,0,0,0-3.06-3.37c-.39-.3-.48-1-.82-1.71.49.13.69.12.78.21,1.2,1.25,2.38,2.52,3.57,3.76.41.42,1.1.68,1.31,1.16.86,2,3.22,2.79,3.86,4.94,0,.16.33.25.46.4.87,1,1.74,2.1,2.6,3.16.24.29.39.64.62.94.86,1.12,1.72,2.22,2.59,3.32.49.61,1.26,1.13,1.45,1.83A5.92,5.92,0,0,0,107.5,233c1.23,1,2.38,2,3.62,3,.91.67,1.87,1.25,2.81,1.86V226.71c-.56-.93-1.05-1.92-1.62-2.84a10,10,0,0,0-.61-.84c-.45-.64-.91-1.28-1.35-1.93-.24-.38-.4-.82-.67-1.17-1.64-2.14-3.29-4.26-5-6.38-.32-.4-.64-.79-1-1.18l-4.58-1c-2-.42-4-.77-5.92-1.15,0-.11,0-.23,0-.34a3.75,3.75,0,0,1,1.12-.36c2.43,0,4.88,0,7.3.14-1-1.27-1.91-2.55-2.91-3.78-1.26-1.55-2.61-3-3.94-4.51-1.9-2.14-3.79-4.3-5.73-6.41-.57-.62-1.37-1.05-2-1.65-2.39-2.34-4.72-4.75-7.13-7.08-1-.92-2-1.71-3.09-2.56-1.77-1.45-3.51-2.92-5.3-4.33-1.16-.91-2.41-1.71-3.59-2.59l-.21-.15v19.27A.5.5,0,0,1,68.08,196Z"/><path class="cls-1" d="M151.3,241.3c1.28,2,2.35,4.13,3.53,6.2.94,1.68,1.92,3.33,2.85,5,1.79.09,3.58.2,5.34.44a55.31,55.31,0,0,1,7,1.53c3.49,1,6.94,2,10.38,3,0-.19-.07-.37-.09-.56a22.91,22.91,0,0,1-.39-2.83l-2.74-2.43c-2-1.8-3.92-3.69-6-5.43s-4.39-3.53-6.61-5.25c-1.84-1.41-3.69-2.82-5.59-4.13-1.7-1.18-3.49-2.21-5.21-3.34-1.95-1.3-3.78-2.81-5.82-3.92l-2.5-1.35a25.42,25.42,0,0,1-.75,3.15C147,234.7,149.17,238,151.3,241.3Z"/><path class="cls-1" d="M189.41,246.56c-1.44-1.62-2.87-3.23-4.33-4.81-.7-.77-1.67-1.29-2.41-2l-1.07-1.06c.19.89.38,1.79.56,2.69.3,1.51.44,3,.65,4.58.19,1.32.41,2.63.58,3.95,1,.86,2,1.73,3,2.64A52.21,52.21,0,0,0,189.41,246.56Z"/><path class="cls-1" d="M110.35,214c.19.21.36.42.53.63.44.53,1,1,1.38,1.52.58.8,1.13,1.61,1.67,2.43v-3.67C112.75,214.57,111.56,214.27,110.35,214Z"/><path class="cls-1" d="M157.42,264.72c-1-1.81-2.45-3.37-2.52-5.58a2.16,2.16,0,0,0-.35-.87c-1.32-2.46-2.68-4.9-4-7.37s-2.41-4.82-3.74-7.17-2.85-4.73-4.33-7.06q-.19.35-.42.69c.82,3.3,1.48,6.64,2.1,10,.36,1.89.55,3.82.75,5.74.12,1.19.2,2.38.27,3.58A60.42,60.42,0,0,1,150,265c1.52.28,3,.55,4.53.88,1.28.3,2.55.67,3.81,1.05-.15-.46-.31-.91-.47-1.37A5.73,5.73,0,0,0,157.42,264.72Z"/><path class="cls-1" d="M141,279.78l-2.46-6.41c-.34-.87-.61-1.77-1-2.61-.47-1-1.11-1.92-1.54-2.93s-.81-1.95-1.19-2.94l-2.06-.29c-2.38-.38-4.75-.7-7.46-1.1a3.64,3.64,0,0,1,3.45-1.53c1.73.17,3.45.38,5.16.58l-.08-.21a2.31,2.31,0,0,0-.47-.8c-1.62-1.65-2.66-3.73-4.33-5.4-1.51-1.5-3.18-2.69-4.77-4a45.79,45.79,0,0,0-3.72-3.34c-.29-.2-.58-.43-.87-.65-1.07,0-2.09-.06-3.1-.16a.24.24,0,0,1,.06.09,15.55,15.55,0,0,1,1,1.71c.36.77.61,1.59,1,2.35.27.58.67,1.09.95,1.66.83,1.75,1.63,3.52,2.45,5.28,0,.06.1.1.12.17.39.86.8,1.72,1.15,2.59.27.68.27,1.58.73,2a5.36,5.36,0,0,1,1.4,2.82,1.48,1.48,0,0,0,.43.81,4.2,4.2,0,0,1,1.23,2.89,6.26,6.26,0,0,0,.84,2.83,6.35,6.35,0,0,1,1.25,2.78c.11.49.24,1,.36,1.47s.37.72.55,1.08a33.43,33.43,0,0,1,1.46,3.09c.06.18.14.36.2.54,3.25-.39,6.34-.85,9.26-1.41Q140.92,280.25,141,279.78Z"/><path class="cls-1" d="M79.47,279.25c-.16-.76-.47-1.49-.63-2.26-.44-2.08-.83-4.17-1.25-6.25,0-.16-.19-.3-.25-.46-.26-.72-.52-1.45-.72-2.2-.42-1.52-.81-3-1.2-4.57l-6.84-3.79-.8-.47v21.41C68,281,78.46,282.3,80,282.43a.77.77,0,0,1,0-.15C79.76,281.27,79.66,280.25,79.47,279.25Z"/><path class="cls-1" d="M75.71,256.2a1.37,1.37,0,0,0-.09,1.83c.31.55.56,1.12.83,1.68,1.07.5,2.11,1,3.14,1.59l.69.41c-1.54-1.63-2.89-3.47-4.36-5.29Z"/><path class="cls-1" d="M74.31,178.17c1.81,1.33,3.71,2.54,5.45,3.94,2,1.59,3.85,3.34,5.75,5s3.77,3.26,5.54,5c2,2,3.83,4.29,5.93,6.23a52,52,0,0,1,6,6.6c1.43,1.86,2.92,3.67,4.43,5.47l2.12.44c1.48.33,3,.68,4.41,1v-9.49c-1.5-1.34-3-2.63-4.62-3.87-3.62-2.84-7.5-5.35-11.31-7.95-2.23-1.53-4.52-3-6.8-4.4-1.71-1.07-3.44-2.08-5.17-3.11,0-.11.06-.22.1-.34a4.11,4.11,0,0,1,1.17.06c2.54,1,5.12,1.82,7.57,3a55.07,55.07,0,0,1,6.2,3.54c3.35,2.14,6.65,4.36,9.93,6.62,1,.71,2,1.49,2.93,2.28v-2.56h7.8a23.3,23.3,0,0,1,20.63,11.57h.17l-.11.11A29.22,29.22,0,0,1,146,222c0,.59,0,1.16,0,1.72,1.18.59,2.34,1.19,3.5,1.8,2.64,1.36,5.16,2.94,7.67,4.53,2.34,1.48,4.62,3,6.88,4.65,3.54,2.53,7.08,5.08,10.55,7.71,1.68,1.27,3.23,2.69,4.82,4.08-.16-1.59-.28-3.18-.5-4.76-.26-1.81-.62-3.6-.95-5.4-.11-.56-.23-1.12-.34-1.68-1.2-1.2-2.39-2.39-3.6-3.56s-2.51-2.09-3.77-3.12c-2.15-1.77-4.27-3.56-6.46-5.28-1.4-1.11-2.92-2.08-4.36-3.15-2-1.45-3.82-3-5.85-4.4-3.13-2.09-6.38-4-9.54-6.06-.39-.26-.5-1-.74-1.46.46-.11,1-.46,1.36-.31,1.81.79,3.61,1.65,5.34,2.6,1.5.82,2.91,1.79,4.36,2.68,2.27,1.39,4.59,2.69,6.78,4.18s4,3,6,4.5c2.21,1.62,4.51,3.09,6.64,4.79.72.58,1.43,1.18,2.13,1.78-.37-1.4-.6-2.85-1.09-4.2-1.33-3.67-2.68-7.33-4.2-10.92a59.9,59.9,0,0,0-3.61-7.21c-1.51-2.57-3.26-5-5-7.49-1-1.45-2-2.86-3.06-4.28-.77-1.05-1.58-2.07-2.38-3.1l.14-.18a2.55,2.55,0,0,1,.69.31c1.3,1.18,2.66,2.32,3.87,3.59a37.64,37.64,0,0,1,2.91,3.61c1.51,2.09,3,4.22,4.42,6.36.63.94,1.15,2,1.72,2.95,1,1.84,2.19,3.63,3.06,5.55,1.4,3.11,2.65,6.29,3.88,9.47.68,1.8,1.23,3.66,1.76,5.51.35,1.23.67,2.47,1,3.71.24.23.49.45.74.67,2.26,2,4.58,4,6.73,6.1,1.24,1.23,2.41,2.53,3.59,3.83a56.25,56.25,0,0,0,1.94-8,.67.67,0,0,0-.15-.06c.12-.39.23-.78.35-1.17a69.45,69.45,0,0,0,.76-10.32,51.08,51.08,0,0,0-2.77-16.69A52.24,52.24,0,0,0,169,198.45l.09-1.57c2.27.08,4.66-.27,6.8.29a112.79,112.79,0,0,1,13.56,4.5c-5.37-11.73-15.56-21.36-30.58-25.79v-1.2c20.08-9.29,28.47-27,28.47-43.75,0-14.09-4.5-28.17-16.19-37.76-15.28-12.59-35-14.39-53.94-14.39S80.67,80,67.78,82.68v90.75c.54.34,1.08.68,1.61,1C71.09,175.62,72.66,177,74.31,178.17Zm39.62-64a28.79,28.79,0,0,1,9.6-1.2c12.28,0,18.57,10.19,18.57,23.37,0,14.39-8.39,25.18-20.67,25.18h-7.5Z"/><path class="cls-1" d="M71.87,216.92c1,.27,2,.54,3,.88,2.24.76,4.42,1.71,6.62,2.6,1.89.75,3.78,1.49,5.64,2.3s3.7,1.68,5.53,2.56l.71.35-.68-1c-1-1.33-2.09-2.51-3.14-3.75-1.8-2.13-3.56-4.27-5.4-6.36-1.18-1.34-2.51-2.57-3.73-3.88-1.66-1.79-3.2-3.69-5-5.39-2.5-2.42-5.12-4.71-7.66-7.08v11.76a52.19,52.19,0,0,1,3.55,5.95Z"/><path class="cls-1" d="M73.22,257a11.13,11.13,0,0,0-2.49-5.63c-1-.82-2-1.59-3-2.38v6.58c1.62.73,3.2,1.58,4.8,2.36l1.25.59-.3-.87C73.45,257.38,73.25,257.18,73.22,257Z"/><path class="cls-1" d="M141.77,252.18a34.83,34.83,0,0,0-.29-4c-.45-2.69-.91-5.38-1.44-8.06a21.77,21.77,0,0,1-5.59,4.62A64.85,64.85,0,0,1,141.77,252.18Z"/><path class="cls-1" d="M78.46,228.53c.64,1.34,1.18,2.72,1.82,4.06.8,1.67,1.65,3.3,2.48,5,.12.25.25.5.38.75,1.07.69,2.14,1.39,3.15,2.16,4.18,3.19,8.21,6.58,12.2,10,2.25,1.93,4.34,4,6.43,6.17,1.93,2,3.8,4,5.63,6.1,2.87,3.27,5.74,6.56,8.5,9.91,1.52,1.83,2.84,3.82,4.24,5.74l.68.9c-.27-.83-.54-1.67-.85-2.48-.15-.39-.37-.75-.55-1.13-.41-.87-.82-1.74-1.19-2.62-.22-.5-.3-1.06-.55-1.54-1.49-2.92-3-5.83-4.53-8.73-.51-1-1.08-1.9-1.58-2.88-1.31-2.54-2.53-5.12-3.89-7.62-1.16-2.13-2.47-4.18-3.73-6.25-1.8-3-3.58-6-5.45-8.94-.55-.88-1.41-1.56-2-2.41s-1-1.4-1.46-2.09Q95,230.79,91.83,229c-.17-.1-.38-.16-.56-.26l-3.5-1.94a7.91,7.91,0,0,0-.84-.37c-1.52-.64-3-1.28-4.55-1.95-2.49-1.09-5-2.22-7.46-3.29-.29-.12-.6-.22-.9-.31,1.11,2,2.24,3.93,3.35,5.89C77.71,227.38,78.16,227.91,78.46,228.53Z"/><path class="cls-1" d="M116,252.05c-.26-.58-.53-1.16-.8-1.73,0-.07-.11-.1-.14-.16-.38-.75-.74-1.52-1.14-2.26s-.85-1.53-1.29-2.29c-.12-.2-.35-.36-.43-.58a11.14,11.14,0,0,0-3.62-5.22c-.24-.21-.5-.4-.75-.6.79,1.26,1.6,2.52,2.49,3.7A62.47,62.47,0,0,1,116,252.05Z"/><path class="cls-1" d="M114.89,275.6c-1.66-2.26-3.46-4.44-5.23-6.62-1.47-1.8-3-3.59-4.5-5.3-1.38-1.53-2.89-2.94-4.31-4.45-1.6-1.7-3-3.59-4.76-5.14,0,0,0,0-.06-.05a1.16,1.16,0,0,1-.41-.23c-.22-.23-.44-.47-.65-.71-3-2.7-6.08-5.39-9.19-8l.42,1.19c.93,2.38,2,4.7,2.9,7.09s1.62,4.93,2.44,7.38a12.31,12.31,0,0,0,.58,1.22,9.87,9.87,0,0,1,.64,1.41c.5,1.72.86,3.48,1.44,5.18l.12.31a62,62,0,0,1,4.16,4.71l.76.54c1.59,1.16,3.17,2.32,4.69,3.57,1.79,1.45,3.47,3,5.27,4.48l1.84,1.24c3.14,0,6.14-.15,9-.31l-.61-.86C117.93,280.05,116.5,277.76,114.89,275.6Z"/><path class="cls-1" d="M76,233.88l-.37-.81c-.17-.41-.24-.87-.44-1.26-1.22-2.4-2.47-4.78-3.72-7.17-.43-.79-.9-1.57-1.31-2.37-.53-1-1-2.09-1.57-3.14l-.85-.28v10.6c2,1,3.89,2,5.82,3C74.44,232.88,75.24,233.37,76,233.88Z"/><path class="cls-1" d="M244.75,258.25a104.91,104.91,0,0,0-16.65-24.54l-1.31-.18C232.75,241.73,238.72,249.94,244.75,258.25Z"/><path class="cls-1" d="M222.6,227.76c.93,1.29,1.87,2.57,2.8,3.85a2.84,2.84,0,0,1,.71-.11Q224.39,229.61,222.6,227.76Z"/><path class="cls-1" d="M280.81,245c2.26,1,4.5,2.05,6.73,3.12,1.77.85,3.53,1.71,5.25,2.65s3.23,1.89,4.85,2.81v-3.91c-.56-.77-1.12-1.54-1.71-2.29-1.44-1.82-3.25-3.37-4-5.67a.94.94,0,0,0-.13-.24H272.17l1.78.73C276.24,243.15,278.55,244.06,280.81,245Z"/><path class="cls-1" d="M221.84,252.79c.92.17,1.84.35,2.75.56,1.9.43,3.78,1.05,5.67,1.57,2.51.7,5.05,1.27,7.51,2.1a3.82,3.82,0,0,0,.36.13c-1.69-3.09-3.43-6.15-5.29-9.13a132,132,0,0,0-31.1-34.73v23A83.93,83.93,0,0,1,221.84,252.79Z"/><path class="cls-1" d="M295,257.52a6.26,6.26,0,0,0-.62-.43l-7.76-4.37c-.22-.12-.47-.19-.69-.31-1.42-.79-2.83-1.59-4.26-2.37-.33-.18-.68-.3-1-.45l-3-1.27c1.35,1.61,2.7,3.2,4,4.81.53.64,1.19,1.18,1.68,1.85,1.06,1.46,2,3,3.08,4.46,1.32,1.83,2.7,3.6,4.05,5.4a31.79,31.79,0,0,1,2,2.77c1.4,2.29,2.65,4.66,4.06,6.94l1.14,1.8v-17Z"/><path class="cls-1" d="M211.62,265.65c.53.64,1.2,1.18,1.68,1.86,1.06,1.45,2,3,3.08,4.45.08.13.17.24.26.36.6.19,1.18.36,1.78.56.87.28,1.66.77,2.51,1.11,2.3.9,4.62,1.71,6.89,2.68.91.39,1.81.82,2.69,1.27a103.47,103.47,0,0,0-12.66-23,36.48,36.48,0,0,1-4.69-1,70.39,70.39,0,0,0-10.44-1.9l-1-.15v1.69c.08.11.17.21.25.31C205.06,258,208.39,261.76,211.62,265.65Z"/><path class="cls-1" d="M228.64,266.57q2.7,6.56,5.42,13.12c.55.26,1.1.53,1.66.78A118.73,118.73,0,0,0,228.64,266.57Z"/><path class="cls-1" d="M205.3,268.83l3,.92q-2.09-2.7-4.18-5.38c-.67-.86-1.4-1.68-2.08-2.55l-.3-.4v5.42C202.93,267.49,204.12,268.16,205.3,268.83Z"/><path class="cls-1" d="M286.63,269.66a34.45,34.45,0,0,1-3.25-5.25c-.22-.36-.51-.67-.75-1-.55-.79-1.12-1.56-1.64-2.37-.31-.45-.48-1-.82-1.41-2-2.6-4-5.18-6-7.77-.68-.85-1.41-1.68-2.08-2.54-1.31-1.71-2.6-3.44-3.91-5.14l-2.17-.95c-.91-.39-1.9-.59-2.85-.91l-2.38-.8h-6.48c1.85,2.2,3.58,4.51,5.35,6.78s3.81,4.74,5.53,7.22c2,2.87,3.65,6,5.74,8.76a61.62,61.62,0,0,1,5.72,9.22c.4.79.82,1.57,1.24,2.35,1.37,1.1,2.67,2.29,4.08,3.33,1.22.9,2.51,1.67,3.76,2.5h8.48c-.8-1.27-1.59-2.55-2.41-3.81C290,275.14,288.84,272.13,286.63,269.66Z"/><path class="cls-1" d="M293.93,242.4c1.07,1.27,2.13,2.54,3.17,3.83a7.88,7.88,0,0,1,.54.83v-5.55h-4.43c.06.13.12.25.17.39S293.77,242.21,293.93,242.4Z"/><path class="cls-1" d="M275.12,281c-1.38-.92-2.79-1.78-4.17-2.7s-2.74-1.9-4.12-2.84a6.26,6.26,0,0,0-.62-.43l-7.75-4.36c-.23-.13-.47-.2-.69-.32-1.43-.79-2.84-1.59-4.26-2.37a9.53,9.53,0,0,0-1-.44l-4.56-1.95c2.16,5.35,4.33,10.69,6.42,16.07h21.14l-.23-.41Z"/><path class="cls-1" d="M267.63,267.38c-1.81-3-3.59-6-5.45-8.93-.55-.88-1.41-1.56-2-2.42-2.35-3.33-4.61-6.72-7-10-.95-1.32-2.09-2.5-3.15-3.75l-.61-.73L248.19,240c-.87-1-1.75-2.07-2.63-3.09a33.38,33.38,0,0,1-4.27-.92,49.33,49.33,0,0,0-8.19-1.58c5.3,6.72,9.74,14.15,14.53,21.29.57.84.79,3,.37,3.26a3.66,3.66,0,0,0-1.48,1.46c2.06.83,4.13,1.65,6.16,2.54,2.27,1,4.51,2,6.73,3.11,1.77.85,3.54,1.71,5.26,2.65,2,1.09,3.86,2.29,5.84,3.37C269.58,270.53,268.58,269,267.63,267.38Z"/><path class="cls-1" d="M231.07,232l3.19.38c2.64.3,5.28.6,7.91.94-.42-.43-.84-.85-1.25-1.29-1.66-1.78-3.21-3.68-4.95-5.38-2.7-2.62-5.56-5.08-8.29-7.68-.34-.33-.33-1-.47-1.57.47,0,1.09-.27,1.39-.06,1.64,1.1,3.25,2.27,4.79,3.52,1.32,1.07,2.54,2.29,3.81,3.43,2,1.77,4,3.47,5.91,5.33,1.55,1.53,3,3.2,4.43,4.81l.65.11V222.74c-1.39-1.39-2.77-2.78-4.19-4.14-1.16-1.13-2.5-2.09-3.76-3.12-2.15-1.77-4.27-3.56-6.45-5.28-1.42-1.11-2.93-2.08-4.38-3.15-2-1.45-3.81-3-5.84-4.4-3.13-2.09-.67-3.44.78-2.55,2.27,1.39,4.58,2.69,6.77,4.18s4,3,6,4.5c2.2,1.62,4.52,3.09,6.64,4.8,1.52,1.22,3,2.52,4.44,3.82V196h44.05V157.6H248.19V119.84h46.15V79.68h-92.6V207.56A106.73,106.73,0,0,1,231.07,232Z"/><path class="cls-1" d="M229.12,281.08c-.34-.18-.65-.4-1-.58-1.7-.88-3.38-1.84-5.13-2.62-1-.44-2-.81-3.09-1.19.18.22.35.44.52.67.67.9,1.4,1.79,2,2.76l.22.38.6.46.89.71h6Z"/><path class="cls-1" d="M214.66,251.31l.46.09c-1.67-2.09-3.45-4.13-5.31-6.1a45.38,45.38,0,0,0-8.07-6.82v11.3l4.39.52C209,250.62,211.82,250.94,214.66,251.31Z"/><path class="cls-1" d="M241,262.54c-1-.46-2.08-.93-3.12-1.37s-1.91-.59-2.85-.91l-8.35-2.8c-.36-.13-.7-.29-1.06-.4l-.3-.09a87.35,87.35,0,0,1,9.29,14.84,99.62,99.62,0,0,1,4.15,9.86h11.52a17.26,17.26,0,0,0-.83-2C246.63,273.94,243.88,268.19,241,262.54Z"/><path class="cls-1" d="M419.3,280c-.08-.22-.28-.42-.31-.65a11.26,11.26,0,0,0-2.62-5.79,61.79,61.79,0,0,0-5.59-5.62c-1-1-1.94-1.94-2.91-2.91l-.44-.44-1.33-1.1q1.61,2.82,3.2,5.64c.41.73,1,1.38,1.33,2.12.23.49.44,1,.66,1.48.95,1.28,1.85,2.59,2.79,3.87,1.25,1.7,2.55,3.37,3.77,5.08h2Z"/><path class="cls-1" d="M346.22,259.41q1.63,1.77,3.23,3.57l2.73,3.14c-.59-1.65-1.19-3.28-1.83-4.89-.67-.35-1.33-.68-2-1S346.93,259.67,346.22,259.41Z"/><path class="cls-1" d="M421.39,280.42c.23.41.44.83.63,1.25H424c-.8-1-1.6-2.07-2.45-3.11A1.37,1.37,0,0,0,421.39,280.42Z"/><path class="cls-1" d="M354.11,259.47a99.73,99.73,0,0,0-10.89-18.81l9.48,18.19c.14.07.3.12.46.19Z"/><path class="cls-1" d="M424.23,250.92c.36.76.7,1.54,1,2.32a62.13,62.13,0,0,1,8.89,12.09l0-.22c-.91-3.66-1.83-7.65-2.75-11.79-2.38-.89-4.8-1.67-7.23-2.41Z"/><path class="cls-1" d="M316.46,281.67c-.47-1-.93-2-1.4-3,0-.07-.12-.12-.16-.19-.46-.92-.9-1.85-1.39-2.75s-1-1.86-1.57-2.78a2,2,0,0,0-.22-.29v9Z"/><path class="cls-1" d="M314.65,264.28c1.3.92,2.51,2,3.78,2.92,1.63,1.24,3.24,2.54,4.94,3.68a30.36,30.36,0,0,0,3.34,1.77,2.3,2.3,0,0,0-.28-1.17q-1-2.12-2-4.2a6.19,6.19,0,0,0-.36-.67c-1.4-2.24-2.79-4.48-4.22-6.7-1.72-2.72-2.93-5.74-5.13-8.2a28.79,28.79,0,0,1-3-4.88v15.53C312.7,263,313.7,263.6,314.65,264.28Z"/><path class="cls-1" d="M317,235.44c2.75,1.73,5.62,3.3,8.2,5.27,4.17,3.19,8.21,6.58,12.2,10,1.4,1.21,2.76,2.5,4.09,3.82.75.24,1.52.47,2.27.72s1.66.77,2.51,1.11l2.48.95s0,0,0-.05a100.79,100.79,0,0,0-25.59-35.63,42.31,42.31,0,0,0-11.41-7.35v18c.25.14.52.27.78.4C314.05,233.51,315.5,234.5,317,235.44Z"/><path class="cls-1" d="M349.45,245.22a149.63,149.63,0,0,1,7.94,15.87l.48.24V230.57c-2.33-1.24-4.68-2.43-7-3.64s-4.84-2.4-7.28-3.55c-1.82-.85-3.66-1.65-5.5-2.47l.06-.34a4.29,4.29,0,0,1,1.17-.09c2.64.64,5.3,1.2,7.86,2a55,55,0,0,1,6.59,2.76c1.38.67,2.76,1.36,4.13,2.05V205.79c0-1.14.37-1.44,2.18-1.44h2.31c8.48,0,13.63,4,16.86,19.08,2,2.33,3.84,4.81,5.74,7.24s3.8,4.73,5.53,7.21c2,2.86,3.65,6,5.73,8.76a61.52,61.52,0,0,1,5.34,8.5l1.7,1.22c1.3.95,2.6,1.9,3.85,2.92,1.47,1.2,2.86,2.5,4.33,3.68a22,22,0,0,0,3.09,2.26l2,1.52-.05-.05.08.08c1,1.15,1.91,2.37,2.95,3.48s2.2,2.07,3.26,3.15,1.74,2,2.62,2.92c1.13,1.25,2.24,2.53,3.44,3.71a17.25,17.25,0,0,0,1.88,1.51l.29-1.4c-.24-.95-.49-1.91-.74-2.86a4.06,4.06,0,0,0-.19-.59c-.81-2-1.6-4-2.41-6-1-2.45-1.53-5.07-2.94-7.39a29.51,29.51,0,0,1-1.86-4.72c-.12-.32-.3-.62-.45-.93-.33-.71-.67-1.43-1-2.15-.17-.41-.24-.87-.44-1.27-.87-1.69-1.75-3.37-2.62-5.05-2.49-.76-5-1.43-7.52-2.09-1.95-.52-3.91-1-5.86-1.44v-.35a3.92,3.92,0,0,1,1.13-.29c2.71.15,5.42.22,8.1.58.82.11,1.65.26,2.47.43-.26-.43-.5-.88-.73-1.32-1.07-2.09-2.07-4.21-3.19-6.26-1-1.75-2-3.43-3.06-5.14-1.49-2.45-3-4.91-4.47-7.34-.47-.72-1.16-1.28-1.66-2-1-1.47-2-2.94-3.06-4.42-.7-.44-1.42-.88-2.14-1.29-2.6-1.48-5.32-2.73-8-4-1.58-.77-3.19-1.48-4.78-2.19-1.2-.52-2.41-1-3.62-1.52a1.43,1.43,0,0,0,0-.22,2.48,2.48,0,0,1,.76-.07c1.71.37,3.45.69,5.13,1.19a35.53,35.53,0,0,1,4.32,1.7c1.9.86,3.79,1.76,5.66,2.67l0-.05c-.78-1.08-1.72-2.05-2.59-3.08-1.47-1.74-2.91-3.51-4.43-5.22-1-1.11-2.06-2.11-3.06-3.19-1.37-1.47-2.64-3-4.07-4.42-2.22-2.16-4.57-4.18-6.81-6.31-.28-.27-.27-.85-.39-1.29.39,0,.9-.23,1.15-.05,1.35.9,2.66,1.87,3.93,2.89,1.09.88,2.08,1.88,3.13,2.81,1.62,1.46,3.3,2.85,4.85,4.38s2.76,3,4.17,4.53,3.19,3.16,4.66,4.85c1.66,1.93,3.17,4,4.74,6l1.55,2a33,33,0,0,1,2.9,1.83c2.76,2,5.43,4.14,8.08,6.31,1.49,1.21,2.87,2.56,4.26,3.9s2.54,2.55,3.76,3.87l1.82,2c.54.07,1.09.13,1.63.21a9.15,9.15,0,0,1,1.13.25c-.45-2.26-.88-4.51-1.29-6.68-1.81-.86-3.65-1.64-5.47-2.46l.06-.34a3.65,3.65,0,0,1,1.17-.08c1.29.31,2.59.6,3.87.92l-.71-3.94c-3.6-19.78-10.19-31.77-23.38-37.76V187c20.68-9.59,30.57-30,30.57-49.75,0-18-3.6-31.47-16.78-43.15-14.08-12.59-35.37-15.29-57.54-15.29a281.5,281.5,0,0,0-47,3.9V212.31A81.79,81.79,0,0,1,349.45,245.22ZM357.87,116c1.8-.91,5.4-1.2,8.4-1.2,14.38.59,20.07,11.68,20.07,26.37s-7.5,27.57-22.48,27.57h-6Z"/><path class="cls-1" d="M353.79,275.84c-1.67-2.26-3.46-4.43-5.24-6.61-1.46-1.8-2.93-3.59-4.49-5.3-1.38-1.54-2.89-2.95-4.3-4.44s-2.56-3-3.93-4.33c-1.32-.44-2.65-.86-4-1.32-2.27-.79-4.55-1.54-7.14-2.42a3.62,3.62,0,0,1,3.67-.88c1.16.34,2.33.68,3.48,1-3.47-3.06-7-6.08-10.56-9a95.71,95.71,0,0,0-9.6-6.75v1.57c.95,1.34,1.84,2.74,2.8,4.07,1.32,1.82,2.71,3.59,4.06,5.39.67.91,1.4,1.79,2,2.76,1.38,2.3,2.66,4.67,4.06,7,1.63,2.66,3.44,5.19,5,7.87s3,5.53,4.55,8.29a13.58,13.58,0,0,0,.95,1.34,11.61,11.61,0,0,1,1.09,1.54c1,1.95,1.79,4,2.86,5.88a.46.46,0,0,0,.09.15h18.08c-.15-.49-.31-1-.46-1.45C355.83,278.75,354.84,277.27,353.79,275.84Z"/><path class="cls-1" d="M321.44,276.76c-2.51-1.75-4.73-3.94-7.19-6a1.67,1.67,0,0,0,.29,2.25c.5.6.94,1.25,1.4,1.88.26.34.53.66.76,1a21.55,21.55,0,0,1,1.2,2.08c.44.93.74,1.93,1.18,2.86.14.29.31.57.48.85H327l-1-.85A57,57,0,0,0,321.44,276.76Z"/><path class="cls-1" d="M408.43,279.39c-.4-.86-.82-1.73-1.19-2.61-.22-.5-.29-1.06-.54-1.54h0c-.34-.48-.67-1-1-1.43-1.67-2.26-3.45-4.43-5.23-6.61-1.47-1.8-2.95-3.59-4.5-5.31-1.38-1.52-2.89-2.94-4.3-4.44-1.61-1.7-3-3.59-4.78-5.14-1.23-1.1-2.45-2.19-3.69-3.28,2.62,15.42,5.83,28.53,7.66,32.64h18.55c-.13-.39-.26-.76-.4-1.14S408.61,279.78,408.43,279.39Z"/><path class="cls-1" d="M387.12,245.81c1.89,1.06,3.7,2.26,5.53,3.42-1.7-2.81-3.38-5.63-5.13-8.41-.56-.88-1.42-1.56-2-2.42-1.66-2.35-3.28-4.72-4.93-7.08q.19,1.31.36,2.7c.38,2.91.79,5.82,1.22,8.69l1.91,1.56C385.1,244.76,386.12,245.26,387.12,245.81Z"/><path class="cls-1" d="M430.53,249c-.19-.27-.43-.58-.75-1-1-1.41-2-2.88-3.07-4.26s-2.32-2.82-3.5-4.21l-.38-.44c-1.83-.34-3.67-.53-5.5-.82l-.25,0a.08.08,0,0,0,0,0c1.56,3.07,3.29,6.06,5,9.05,2.89.8,5.75,1.65,8.61,2.53C430.64,249.58,430.59,249.3,430.53,249Z"/><path class="cls-1" d="M420.87,236.91c-.22-.25-.44-.5-.67-.74-.92-1-1.92-1.87-2.86-2.82s-2-2.28-3.18-3.26c-1.6-1.36-3.2-2.71-4.83-4,1,1.58,1.95,3.17,3.07,4.65a53,53,0,0,1,3.67,5.65l4.07.47Z"/><path class="cls-1" d="M469.33,275.48c-1.63-1.26-3.37-2.38-5-3.6s-3.05-2.44-4.64-3.53c-1.38-.2-2.76-.38-4.13-.6-2.38-.37-4.77-.69-7.47-1.09a3.64,3.64,0,0,1,3.45-1.53l3.61.4c-3.95-2.38-7.94-4.73-12-6.92-1-.51-1.94-1-2.91-1.5.94,1.47,1.87,2.93,2.79,4.4.66,1.05,1.27,2.13,1.84,3.23.71,1.39,1.34,2.83,2,4.23s1.62,2.88,2.3,4.38,1.3,3.36,1.94,5c.09.22.25.41.35.64a22.21,22.21,0,0,1,.91,2.06c.06.19.12.39.17.58h23.09l.15-.87-1.08-.92C473,278.38,471.17,276.88,469.33,275.48Z"/><path class="cls-1" d="M440,240.63c2.06.57,4.15,1,6.16,1.72,1.63.55,3.22,1.2,4.82,1.85-1.47-1-2.95-2-4.46-2.88-2.11-1.27-4.28-2.44-6.47-3.59l-.58,2.74Z"/><path class="cls-1" d="M475.1,265.31c-1.61-1.7-3-3.59-4.78-5.14-2.61-2.34-5.25-4.67-7.92-7l-3.35-1.85a8.93,8.93,0,0,0-.84-.37c-1.52-.65-3-1.28-4.55-1.94-2.49-1.1-5-2.23-7.46-3.3-.75-.32-1.57-.49-2.34-.74l-5-1.69L437,252l.09.16.48.19c3,1.21,6.14,2.24,9,3.7,4.68,2.39,9.26,5,13.8,7.64,1.61.94,3.18,2,4.72,3l2.36.29c.9.12,1.77.47,2.67.64,2.42.48,4.86.86,7.27,1.4l.4.1.16-.88C477,267.27,476,266.3,475.1,265.31Z"/><path class="cls-1" d="M497.51,235l.66,1.18c.34.6.79,1.13,1.09,1.74.62,1.3,1.15,2.64,1.76,3.93h3.39C502.1,239.53,499.83,237.23,497.51,235Z"/><path class="cls-1" d="M550.66,238.75c-.18-.12-.33-.24-.51-.34l-3-1.69c.19.37.39.74.56,1.12,1.39,3.11,2.66,6.29,3.88,9.48.65,1.68,1.16,3.41,1.65,5.14l.08,0a75.31,75.31,0,0,1,9.83,9.72c-.31-1.46-.64-3.36-.86-4.66-.63-3.85-1.3-7.69-2.14-11.5-.07-.32-.16-.64-.24-1-1.86-1.5-3.88-2.7-5.86-4C552.9,240.33,551.79,239.53,550.66,238.75Z"/><path class="cls-1" d="M472.88,271.09c-.74-.18-1.49-.32-2.24-.44,1.29,1,2.57,1.92,3.82,2.92l2.27,1.81.52-3C475.8,271.91,474.36,271.44,472.88,271.09Z"/><path class="cls-1" d="M565.21,281.65a139.35,139.35,0,0,0-9.31-18.11c.2.93.4,1.86.58,2.8.31,1.51.44,3.05.65,4.58.26,1.83.58,3.65.75,5.49.12,1.31.16,2.64.19,4l.27.51.39.78h3.91S564,281.64,565.21,281.65Z"/><path class="cls-1" d="M553.87,254.73l.39,1.57a93,93,0,0,1,10.4,13.62c0-.19-.19-.82-.19-1-.87-1.57-3.26-5.33-4.24-6.86A33.32,33.32,0,0,0,553.87,254.73Z"/><path class="cls-1" d="M536.19,280.09c-.22-.36-.51-.67-.75-1-.56-.78-1.12-1.56-1.65-2.36-.3-.46-.48-1-.81-1.42-2-2.6-4-5.18-6-7.77-.68-.86-1.41-1.68-2.08-2.55-1.74-2.26-3.41-4.58-5.2-6.79-.7-.87-1.44-1.71-2.18-2.55l2.59,15.69,1.44.93c2.05,1.39,4.06,2.83,6.05,4.28,1.59,1.16,3.18,2.32,4.7,3.56.62.51,1.23,1,1.83,1.57h3C536.79,281.14,536.5,280.6,536.19,280.09Z"/><path class="cls-1" d="M437.42,272.07a67.32,67.32,0,0,1,2.49,7.13c.23.81.44,1.64.63,2.47H447c-1.39-1.76-2.85-3.47-4.42-5.13A33.9,33.9,0,0,0,437.42,272.07Z"/><path class="cls-1" d="M525.81,280.86c-.2-.16-.42-.27-.62-.43-1.26-1-2.49-2.07-3.76-3.1a3.6,3.6,0,0,0-.4-.28l.4,2.37c.1.15.23.29.35.44.29.35.46.79.75,1.15l.52.66h3.73Z"/><path class="cls-1" d="M434.34,265.67q1.11,2,2.07,4.08a63.72,63.72,0,0,1,9.34,6.69l-.87-2c-.7-1.65-1.34-3.31-2-5a2.46,2.46,0,0,0-.17-.27c-1.2-2.09-2.44-4.16-3.6-6.27s-2.11-4-3.16-6.06l-1.75,8.24C434.25,265.29,434.3,265.48,434.34,265.67Z"/><path class="cls-1" d="M552.25,261.34c-.25-1.28-.51-2.56-.8-3.83-1.14-1.39-2.33-2.76-3.58-4.08a32.83,32.83,0,0,0-7.75-6.14,63.31,63.31,0,0,1,4.3,7.24c2.29,4.5,4.89,8.85,7.36,13.26.41.73,1,1.38,1.32,2.12.2.43.38.86.57,1.29-.15-1.49-.27-3-.47-4.46C552.94,264.93,552.59,263.14,552.25,261.34Z"/><path class="cls-1" d="M452.33,241.27c2.75,1.73,5.63,3.3,8.2,5.27,1.8,1.37,3.55,2.78,5.31,4.21.8.4,1.6.81,2.39,1.24,1.65.92,3.25,1.93,4.91,2.84a44.28,44.28,0,0,1,5.64,2.75c.31.24.6.48.9.73l.66-3.77c-2-.72-4-1.33-6-2-2.26-.79-4.55-1.54-7.14-2.42a3.64,3.64,0,0,1,3.68-.88c2.39.69,4.77,1.44,7.14,2.17l2.72.83.31-1.83-4.22-3.5c-.15-.13-.34-.23-.5-.36-1-.84-2.05-1.7-3.09-2.54-.24-.2-.52-.35-.77-.52-1.37-.91-2.76-1.81-4.12-2.73-2.25-1.52-4.48-3.09-6.74-4.59-.68-.45-1.45-.76-2.18-1.15-2.11-1.16-4.21-2.34-6.32-3.51-.27-.15-.52-.33-.8-.47-1.41-.73-2.77-1.52-4.22-2.16-1.77-.78-3.68-1.28-5.38-2.18l-.32-.16-1.77,8.33c2.42,1.21,4.83,2.43,7.22,3.69C449.39,239.34,450.85,240.33,452.33,241.27Z"/><path class="cls-1" d="M550.09,252.51c0-.19-.13-.56-.13-.56l-.28-1.19s-.35-1.43-.59-2.11c-1.33-3.66-2.68-7.33-4.19-10.92-.43-1-.9-2-1.39-3a2,2,0,0,1-.3-.14l-3.5-1.94a8.93,8.93,0,0,0-.84-.37c-1.53-.65-3-1.28-4.55-1.95-2.5-1.09-5-2.22-7.46-3.29a12.93,12.93,0,0,0-1.63-.53c.74,1,1.46,1.91,2.2,2.86,1.87,2.38,3.8,4.73,5.53,7.21,1.9,2.73,3.5,5.67,5.46,8.36a5.39,5.39,0,0,1,.93.39A65,65,0,0,1,550.09,252.51Z"/><path class="cls-1" d="M446.38,225.65c1.88.75,3.81,1.41,5.67,2.21,1.48.63,2.89,1.41,4.34,2.11,1.92.93,3.9,1.77,5.75,2.81,2.08,1.15,4,2.48,6.05,3.75,1.72,1.08,3.44,2.15,5.13,3.29s3.33,2.31,5,3.51c1.19.86,2.37,1.74,3.53,2.66v-.07a2.83,2.83,0,0,1-.2-.28c-.25-.37-.4-.81-.67-1.16-1.64-2.14-3.29-4.26-4.95-6.38-.56-.71-1.17-1.38-1.72-2.1-1.42-1.85-2.79-3.76-4.26-5.58-1.26-1.54-2.61-3-3.94-4.49-1.91-2.15-3.79-4.31-5.73-6.42-.57-.63-1.37-1-2-1.65-2.39-2.35-4.72-4.75-7.13-7.08-1-.92-2.05-1.71-3.09-2.56l-1.61-1.33-3.69,17.4,1.46.45C445,225,445.68,225.38,446.38,225.65Z"/><path class="cls-1" d="M456.8,211.69c1.85,1.65,3.76,3.26,5.53,5,2,2,3.83,4.28,5.93,6.23a50,50,0,0,1,6,6.6c2.52,3.29,5.26,6.43,7.91,9.62.44.53,1,1,1.38,1.52.28.37.53.76.79,1.14h11.94a4.57,4.57,0,0,0-.24-.65q-1.84-3.58-3.72-7.16c-.42-.8-.89-1.57-1.31-2.37-.63-1.23-1.24-2.46-1.86-3.68q-1.26-1-2.55-2.07c-1.4-1.11-2.93-2.08-4.37-3.15-2-1.46-3.81-3-5.84-4.4-3.14-2.09-6.39-4-9.54-6.06-.39-.26-.5-1-.74-1.45.45-.12,1-.47,1.36-.32,1.81.79,3.59,1.65,5.34,2.6,1.49.82,2.9,1.79,4.36,2.69,2.26,1.38,4.58,2.68,6.78,4.17.39.26.76.55,1.14.82-.1-.19-.22-.36-.33-.55-1.48-2.45-2.95-4.92-4.48-7.34-.45-.72-1.16-1.28-1.65-2-1.93-2.74-3.79-5.53-5.74-8.25-.78-1.08-1.71-2.06-2.58-3.08-1.47-1.74-2.92-3.51-4.43-5.22-1-1.11-2.06-2.11-3.06-3.19-1.37-1.47-2.64-3-4.07-4.42-2.16-2.1-4.43-4.07-6.61-6.13l-4.93,23.25c1.3.9,2.61,1.79,3.84,2.79C453,208.25,454.89,210,456.8,211.69Z"/><path class="cls-1" d="M456.62,182c1.09.88,2.08,1.88,3.12,2.81,1.63,1.46,3.31,2.85,4.87,4.38s2.76,3,4.15,4.53c1.54,1.63,3.19,3.16,4.67,4.85,1.66,1.93,3.18,4,4.74,6s3.12,3.89,4.54,5.93c1.64,2.35,3,4.91,4.71,7.19a51,51,0,0,1,4.71,7.58l.65,1.24c1.28.89,2.56,1.79,3.78,2.76,2.41,1.95,4.68,4.07,7,6.13s4.59,4,6.74,6.1l.32.33h4.58l1,5.93c.44.45.87.9,1.33,1.32a62.56,62.56,0,0,1,7.31,8c3.06,4,6.4,7.82,9.63,11.71.53.64,1.19,1.18,1.67,1.85,1.06,1.47,2,3,3.08,4.46,1.32,1.82,2.71,3.6,4,5.4.3.38.59.76.88,1.15h8.18c-.28-.83-.54-1.67-.85-2.47-.15-.4-.38-.75-.55-1.14-.41-.87-.82-1.73-1.2-2.61-.21-.5-.29-1.06-.54-1.54-1.49-2.92-3-5.82-4.54-8.73-.51-1-1.07-1.91-1.58-2.88-1.3-2.54-2.51-5.12-3.88-7.62-1.17-2.14-2.48-4.18-3.73-6.26-1.8-3-3.58-6-5.45-8.93-.55-.88-1.41-1.56-2-2.42-2.35-3.33-4.61-6.72-7-10-.68-.95-1.46-1.82-2.23-2.71l-1.11-.37c-.29-.1-.58-.23-.87-.32-1.52-.47-3-1-4.54-1.36-1.88-.45-3.85-.6-5.69-1.18a58.39,58.39,0,0,0-8.57-1.56c-2-.31-3.91-.57-6.14-.9a3,3,0,0,1,2.85-1.25c2,.2,4.06.45,6.09.69,2.34.27,4.68.53,7,.84.75.09,1.46.38,2.19.52,1.85.36,3.7.66,5.53,1.05-1-1.2-2-2.39-3-3.56-1.19-1.35-2.5-2.58-3.73-3.88-1.66-1.79-3.2-3.7-5-5.39-.52-.51-1-1-1.59-1.51H487l6-38.36c1.79-10.79,4.79-33.27,6.89-45.85h.59c1.8,12.58,4.5,34.46,6,45.85l5.09,38.36H506c1.67,1.47,3.38,2.92,5,4.48,1.77,1.75,3.36,3.69,5.07,5.5,1.88,2,3.88,3.85,5.67,5.91a.44.44,0,0,0,.12.15c1.68.44,3.36.86,5,1.42,2.25.76,4.42,1.71,6.62,2.59,1.88.76,3.78,1.5,5.63,2.31l1.4.63c-1.31-2.07-2.72-4.08-4.09-6.11-1-1.45-2-2.86-3.07-4.28-.77-1-1.58-2.07-2.38-3.1l.14-.18a2.76,2.76,0,0,1,.7.31c1.3,1.18,2.65,2.32,3.86,3.59A36.57,36.57,0,0,1,538.5,223c1.52,2.09,3,4.21,4.42,6.35.29.44.56.89.81,1.34.28.13.56.25.83.39,1.45.69,2.91,1.4,4.32,2.18,1.65.91,3.25,1.94,4.91,2.84.29.15.78-.05,1.17-.09-.06-.32,0-.72-.18-1-1.08-1.55-2.16-3.1-3.33-4.58s-2.67-2.76-3.29-4.66a.8.8,0,0,0-.32-.4c-1.93-1-2.75-3-4.13-4.46a28.48,28.48,0,0,0-3.06-3.37c-.38-.3-.47-1-.81-1.72.49.13.68.12.78.22,1.2,1.25,2.37,2.52,3.58,3.76.4.42,1.09.68,1.3,1.15.86,2,3.22,2.8,3.85,5,0,.16.33.25.46.4.88,1,1.75,2.09,2.61,3.15.23.3.38.65.61,1,.86,1.11,1.73,2.21,2.6,3.31a9.6,9.6,0,0,0,.69.74c-.64-1.48-1.31-2.95-2-4.42s-1.47-3.18-2.24-4.76c-.57-1.17-1.18-2.33-1.78-3.49l.17-.14a2.59,2.59,0,0,1,.63.43c1.07,1.39,2.19,2.76,3.15,4.23a34.76,34.76,0,0,1,2.21,4.07c.5,1,1,2.11,1.46,3.16L529.89,79.68H473.54L452.46,179a.52.52,0,0,1,.23.06C454,180,455.36,181,456.62,182Z"/><path class="cls-1" d="M431.32,281.67a2,2,0,0,0-.09-.71c-.08-.27-.15-.54-.22-.82l-.29,1.4.18.13Z"/><path class="cls-1" d="M434.34,265.67c0-.19-.09-.38-.14-.56l0,.22A3.65,3.65,0,0,1,434.34,265.67Z"/><path class="cls-1" d="M437.76,281.67h.78c-.67-2.39-1.44-4.75-2.3-7.11C436.75,276.93,437.25,279.3,437.76,281.67Z"/><path class="cls-1" d="M216.23,281.67c-.11-.13-.21-.27-.31-.4-.95-.66-1.91-1.31-2.83-2-1.88-1.39-3.63-3-5.62-4.2-.06,0-5.71-4.2-5.76-4.24a1.9,1.9,0,0,0,0,.25V281.7h11.65l0,0Z"/></g></g></svg>